<svg width="32" height="32" viewBox="0 0 32 32" fill="none" xmlns="http://www.w3.org/2000/svg">
<path d="M8 11C9.65685 11 11 9.65685 11 8C11 6.34315 9.65685 5 8 5C6.34315 5 5 6.34315 5 8C5 9.65685 6.34315 11 8 11Z" fill="#FF4085"/>
<path d="M8 19C9.65685 19 11 17.6569 11 16C11 14.3431 9.65685 13 8 13C6.34315 13 5 14.3431 5 16C5 17.6569 6.34315 19 8 19Z" fill="#FF4085"/>
<path d="M8 27C9.65685 27 11 25.6569 11 24C11 22.3431 9.65685 21 8 21C6.34315 21 5 22.3431 5 24C5 25.6569 6.34315 27 8 27Z" fill="#FF4085"/>
<rect x="13" y="7" width="14" height="2" fill="#FF4085"/>
<rect x="13" y="15" width="14" height="2" fill="#FF4085"/>
<rect x="13" y="23" width="14" height="2" fill="#FF4085"/>
</svg>
