<svg width="32" height="32" viewBox="0 0 32 32" fill="none" xmlns="http://www.w3.org/2000/svg">
<path fill-rule="evenodd" clip-rule="evenodd" d="M16 4C9.383 4 4 9.383 4 16C4 22.617 9.383 28 16 28C22.617 28 28 22.617 28 16C28 9.383 22.617 4 16 4ZM12 14C12 11.791 13.844 10 16 10C18.156 10 20 11.791 20 14V15C20 17.209 18.156 19 16 19C13.844 19 12 17.209 12 15V14ZM9.599 23.674C11.335 25.124 13.567 26 16 26C18.433 26 20.665 25.124 22.401 23.674C21.562 22.091 19.917 21 18 21H14C12.083 21 10.438 22.091 9.599 23.674Z" fill="#FF97DC"/>
</svg>
