<svg width="48" height="48" viewBox="0 0 48 48" fill="none" xmlns="http://www.w3.org/2000/svg">
<path d="M24 48C37.2548 48 48 37.2548 48 24C48 10.7452 37.2548 0 24 0C10.7452 0 0 10.7452 0 24C0 37.2548 10.7452 48 24 48Z" fill="#11CDEF"/>
<path d="M20 26H13C12.448 26 12 25.552 12 25V13C12 12.448 12.448 12 13 12H31C31.552 12 32 12.448 32 13V18H30V14H14V24H20V26Z" fill="white"/>
<path d="M29 28C26.049 28 23.597 27.361 22 26.288C22 27.034 22 27.526 22 28C22 29.657 25.134 31 29 31C32.866 31 36 29.657 36 28C36 27.526 36 27.034 36 26.288C34.403 27.361 31.951 28 29 28Z" fill="white"/>
<path d="M29 33C26.049 33 23.597 32.361 22 31.288C22 32.034 22 32.526 22 33C22 34.657 25.134 36 29 36C32.866 36 36 34.657 36 33C36 32.526 36 32.034 36 31.288C34.403 32.361 31.951 33 29 33Z" fill="white"/>
<path d="M20.909 20.672C21.595 19.871 22.643 19.217 23.975 18.756C23.854 17.77 23.02 17 22 17C20.897 17 20 17.897 20 19C20 19.7 20.363 20.315 20.909 20.672Z" fill="white"/>
<path d="M29 26C32.866 26 36 24.6569 36 23C36 21.3431 32.866 20 29 20C25.134 20 22 21.3431 22 23C22 24.6569 25.134 26 29 26Z" fill="white"/>
</svg>
