<svg width="48" height="48" viewBox="0 0 48 48" fill="none" xmlns="http://www.w3.org/2000/svg">
<path d="M24 48C37.2548 48 48 37.2548 48 24C48 10.7452 37.2548 0 24 0C10.7452 0 0 10.7452 0 24C0 37.2548 10.7452 48 24 48Z" fill="#41C74E"/>
<path d="M27.461 26.023C26.424 26.632 25.258 27 24 27C22.742 27 21.576 26.632 20.539 26.023C16.894 26.262 14 29.296 14 33V34.73L14.695 34.953C14.829 34.995 18.038 36 24 36C29.962 36 33.171 34.995 33.305 34.953L34 34.73V33C34 29.296 31.106 26.262 27.461 26.023Z" fill="white"/>
<path d="M24 25C27.379 25 30 21.237 30 18C30 14.691 27.309 12 24 12C20.691 12 18 14.691 18 18C18 21.237 20.621 25 24 25Z" fill="white"/>
</svg>
