<svg width="49" height="48" viewBox="0 0 49 48" fill="none" xmlns="http://www.w3.org/2000/svg">
<path d="M24.75 48C38.0048 48 48.75 37.2548 48.75 24C48.75 10.7452 38.0048 0 24.75 0C11.4952 0 0.75 10.7452 0.75 24C0.75 37.2548 11.4952 48 24.75 48Z" fill="url(#paint0_linear_1204_4225)"/>
<g clip-path="url(#clip0_1204_4225)">
<path d="M20.6018 32.2573C20.6018 33.378 19.5086 33.6166 19.1918 33.6626C18.4511 33.6419 17.8551 33.021 17.8551 32.2573V14.8788H26.0952V13H16.9395C16.4341 13 16.0239 13.4208 16.0239 13.9394V32.2573C16.0239 34.0703 17.4614 35.5451 19.2284 35.5451H32.962C34.7291 35.5451 36.1665 34.0703 36.1665 32.2573V30.8482H20.6018V32.2573Z" fill="white"/>
<path d="M31.5886 24.2725C30.2271 24.2725 28.9654 23.831 27.9263 23.0852V28.9694L31.5886 26.1513L35.2509 28.9694V23.0852C34.2117 23.831 32.95 24.2725 31.5886 24.2725Z" fill="white"/>
<path d="M31.5886 22.3938C34.1169 22.3938 36.1665 20.2909 36.1665 17.6969C36.1665 15.1029 34.1169 13 31.5886 13C29.0603 13 27.0107 15.1029 27.0107 17.6969C27.0107 20.2909 29.0603 22.3938 31.5886 22.3938Z" fill="white"/>
</g>
<defs>
<linearGradient id="paint0_linear_1204_4225" x1="8.69287" y1="7" x2="38.1929" y2="43" gradientUnits="userSpaceOnUse">
<stop stop-color="#172B4D"/>
<stop offset="1" stop-color="#172B4D"/>
</linearGradient>
<clipPath id="clip0_1204_4225">
<rect width="21.9737" height="22.5451" fill="white" transform="translate(14.1929 13)"/>
</clipPath>
</defs>
</svg>
