<svg width="48" height="48" viewBox="0 0 48 48" fill="none" xmlns="http://www.w3.org/2000/svg">
<path d="M27.461 26.023C26.424 26.632 25.258 27 24 27C22.742 27 21.576 26.632 20.539 26.023C16.894 26.262 14 29.296 14 33V34.73L14.695 34.953C14.829 34.995 18.038 36 24 36C29.962 36 33.171 34.995 33.305 34.953L34 34.73V33C34 29.296 31.106 26.262 27.461 26.023Z" fill="white"/>
<path d="M24 25C27.379 25 30 21.237 30 18C30 14.691 27.309 12 24 12C20.691 12 18 14.691 18 18C18 21.237 20.621 25 24 25Z" fill="white"/>
<path d="M24 48C37.2548 48 48 37.2548 48 24C48 10.7452 37.2548 0 24 0C10.7452 0 0 10.7452 0 24C0 37.2548 10.7452 48 24 48Z" fill="#11CDEF"/>
<path d="M26 19H22V14C22 12.895 22.895 12 24 12V12C25.105 12 26 12.895 26 14V19Z" fill="white"/>
<path fill-rule="evenodd" clip-rule="evenodd" d="M35 17H28V21H20V17H13C12.448 17 12 17.448 12 18V35C12 35.552 12.448 36 13 36H35C35.552 36 36 35.552 36 35V18C36 17.448 35.552 17 35 17ZM20 24C21.105 24 22 24.895 22 26C22 27.105 21.105 28 20 28C18.895 28 18 27.105 18 26C18 24.895 18.895 24 20 24ZM19 29C17.343 29 16 30.343 16 32H24C24 30.343 22.657 29 21 29H19ZM32 31H26V29H32V31ZM26 27H32V25H26V27Z" fill="white"/>
</svg>
