<svg width="130" height="1150" viewBox="0 0 130 1150" fill="none" xmlns="http://www.w3.org/2000/svg">
<rect width="130" height="1149.22" rx="12" fill="white"/>
<path d="M79.368 24H50.632C50.1992 24 49.7841 24.172 49.478 24.478C49.1719 24.7841 49 25.1992 49 25.632V39.3147C49 39.7476 49.1719 40.1627 49.478 40.4688C49.7841 40.7748 50.1992 40.9467 50.632 40.9467H56.5289V54.368C56.5289 54.8008 56.7008 55.2159 57.0069 55.522C57.3129 55.828 57.7281 56 58.1609 56H71.8436C72.0577 56 72.2697 55.9578 72.4675 55.8757C72.6652 55.7936 72.8449 55.6733 72.996 55.5217C73.1472 55.3701 73.267 55.1902 73.3485 54.9922C73.43 54.7942 73.4717 54.5821 73.4711 54.368V40.9467H79.368C79.8008 40.9467 80.216 40.7748 80.522 40.4688C80.8281 40.1627 81 39.7476 81 39.3147V25.632C81 25.1992 80.8281 24.7841 80.522 24.478C80.216 24.172 79.8008 24 79.368 24ZM50.8935 25.8935H64.0533V39.0533H50.8935V25.8935ZM71.5821 54.1065H58.4179V40.9467H71.5821V54.1065ZM79.1155 39.0533H65.9467V25.8935H79.1155V39.0533Z" fill="black"/>
<path d="M59.9397 34.0264C60.0285 34.1076 60.1339 34.172 60.2498 34.2157C60.3657 34.2594 60.4898 34.2816 60.615 34.281C60.7396 34.2817 60.863 34.2595 60.9782 34.2158C61.0933 34.1721 61.1979 34.1077 61.2857 34.0264C61.3762 33.9447 61.448 33.8473 61.4971 33.7398C61.5461 33.6323 61.5714 33.5169 61.5714 33.4002C61.5714 33.2836 61.5461 33.1682 61.4971 33.0607C61.448 32.9532 61.3762 32.8557 61.2857 32.7741L58.2492 29.9774C58.1606 29.8941 58.0548 29.8279 57.9381 29.7827C57.8213 29.7375 57.696 29.7143 57.5694 29.7143C57.4427 29.7143 57.3174 29.7375 57.2007 29.7827C57.0839 29.8279 56.9782 29.8941 56.8895 29.9774L53.853 32.7741C53.6727 32.9402 53.5714 33.1654 53.5714 33.4002C53.5714 33.6351 53.6727 33.8603 53.853 34.0264C54.0333 34.1924 54.2779 34.2857 54.5328 34.2857C54.7878 34.2857 55.0324 34.1924 55.2127 34.0264L57.5784 31.8474L59.9397 34.0264Z" fill="black"/>
<path d="M70.0517 34.0228L72.4175 31.8457L74.7833 34.0228C74.8719 34.1061 74.9777 34.1722 75.0944 34.2173C75.2111 34.2625 75.3365 34.2857 75.4631 34.2857C75.5897 34.2857 75.7151 34.2625 75.8318 34.2173C75.9485 34.1722 76.0543 34.1061 76.1429 34.0228C76.2334 33.9413 76.3052 33.844 76.3543 33.7365C76.4033 33.6291 76.4286 33.5137 76.4286 33.3972C76.4286 33.2807 76.4033 33.1654 76.3543 33.0579C76.3052 32.9505 76.2334 32.8531 76.1429 32.7716L73.1064 29.9772C73.0178 29.894 72.912 29.8278 72.7953 29.7827C72.6785 29.7375 72.5532 29.7143 72.4265 29.7143C72.2999 29.7143 72.1746 29.7375 72.0579 29.7827C71.9411 29.8278 71.8353 29.894 71.7467 29.9772L68.7102 32.7716C68.5299 32.9375 68.4286 33.1626 68.4286 33.3972C68.4286 33.6319 68.5299 33.8569 68.7102 34.0228C68.8905 34.1888 69.135 34.282 69.39 34.282C69.645 34.282 69.8895 34.1888 70.0698 34.0228H70.0517Z" fill="black"/>
<path d="M62.3042 45.9736C62.0981 45.8076 61.8187 45.7143 61.5273 45.7143C61.2359 45.7143 60.9564 45.8076 60.7504 45.9736C60.5443 46.1395 60.4286 46.3647 60.4286 46.5994C60.4286 46.8342 60.5443 47.0593 60.7504 47.2253L64.2257 50.0209C64.3266 50.1047 64.4474 50.1713 64.5808 50.2168C64.7143 50.2623 64.8577 50.2857 65.0026 50.2857C65.1475 50.2857 65.2909 50.2623 65.4244 50.2168C65.5578 50.1713 65.6786 50.1047 65.7795 50.0209L69.2496 47.2253C69.4557 47.0593 69.5714 46.8342 69.5714 46.5994C69.5714 46.3647 69.4557 46.1395 69.2496 45.9736C69.0436 45.8076 68.7641 45.7143 68.4727 45.7143C68.1813 45.7143 67.9019 45.8076 67.6958 45.9736L65.0078 48.1349L62.3042 45.9736Z" fill="black"/>
<path d="M0 80H130" stroke="url(#paint0_linear_23_3611)"/>
<rect x="22" y="96" width="86" height="53.6" rx="4" fill="#F6F9FC"/>
<g clip-path="url(#clip0_23_3611)">
<path d="M72.3905 119.433L72.3902 119.432L70.3904 116.099C70.3903 116.099 70.3903 116.099 70.3903 116.099C70.3844 116.089 70.376 116.081 70.366 116.075L70.6612 115.554L70.366 116.075C70.3561 116.07 70.3448 116.067 70.3333 116.067L72.3905 119.433ZM72.3905 119.433C72.3967 119.443 72.4 119.455 72.4 119.467L72.4 119.468C72.4011 119.867 72.2863 120.258 72.0695 120.594C71.8527 120.929 71.5433 121.194 71.1788 121.356C70.8143 121.519 70.4104 121.572 70.0161 121.51C69.6219 121.447 69.2543 121.272 68.9579 121.005L68.5553 120.641L68.1533 121.005C67.7762 121.347 67.2857 121.536 66.777 121.536C66.2683 121.536 65.7778 121.347 65.4007 121.005L64.9983 120.641L64.5957 121.005C64.2187 121.346 63.7288 121.534 63.2207 121.534C62.7126 121.534 62.2226 121.346 61.8457 121.005L61.4434 120.641L61.0411 121.005C60.6632 121.346 60.1716 121.535 59.6622 121.533H59.6607H59.6561C59.1098 121.532 58.5864 121.313 58.2008 120.926L57.7757 121.35L58.2008 120.926C57.8152 120.539 57.599 120.014 57.6 119.468L57.6 119.467C57.6 119.455 57.6033 119.443 57.6095 119.433L57.6098 119.432M72.3905 119.433L57.6098 119.432M57.6098 119.432L59.6097 116.099C59.6097 116.099 59.6097 116.099 59.6097 116.099C59.6156 116.089 59.624 116.081 59.634 116.075C59.6439 116.07 59.6552 116.067 59.6667 116.067L57.6098 119.432ZM59.6553 122.133H59.6607C60.3192 122.135 60.9547 121.891 61.4433 121.45C61.9306 121.89 62.5639 122.134 63.2207 122.134L59.6553 122.133ZM59.6668 116.067H70.3332H59.6668Z" stroke="#596CFF" stroke-width="1.2"/>
<path d="M70.3444 124.067V124.067L70.3519 124.067C70.368 124.066 70.384 124.066 70.4 124.066V130.133C70.4 130.151 70.393 130.168 70.3805 130.181C70.368 130.193 70.351 130.2 70.3333 130.2H66.9333V126.8V126.2H66.3333H63.6667H63.0667V126.8V130.2H59.6667C59.649 130.2 59.632 130.193 59.6195 130.181C59.607 130.168 59.6 130.151 59.6 130.133V124.066C59.6183 124.066 59.6366 124.066 59.6549 124.067L59.6549 124.067L59.6597 124.067C60.2731 124.068 60.8796 123.946 61.4435 123.709C61.5465 123.753 61.6511 123.792 61.757 123.828C62.3274 124.021 62.9305 124.1 63.5315 124.06C64.0377 124.025 64.5339 123.907 64.9999 123.71C65.1027 123.753 65.207 123.792 65.3127 123.828C65.8834 124.021 66.4868 124.1 67.088 124.059C67.595 124.024 68.0921 123.906 68.5588 123.708C69.1233 123.945 69.7303 124.067 70.3444 124.067Z" stroke="#596CFF" stroke-width="1.2"/>
</g>
<path d="M51.3672 179.4V169.406H52.5293V178.361H56.9658V179.4H51.3672Z" fill="#6C757D"/>
<path d="M59.4268 219.907C59.4268 221.033 59.2171 221.974 58.7979 222.73C58.3786 223.482 57.7702 224.05 56.9727 224.433C56.1751 224.811 55.2135 225 54.0879 225H51.3125V215.006H54.3887C55.4232 215.006 56.3164 215.193 57.0684 215.566C57.8203 215.936 58.4014 216.485 58.8115 217.214C59.2217 217.938 59.4268 218.836 59.4268 219.907ZM57.7178 219.955C57.7178 219.135 57.5879 218.46 57.3281 217.932C57.0729 217.403 56.6947 217.011 56.1934 216.756C55.6966 216.496 55.0837 216.366 54.3545 216.366H52.9531V223.626H54.1152C55.3229 223.626 56.2253 223.318 56.8223 222.703C57.4193 222.088 57.7178 221.172 57.7178 219.955Z" fill="#212529"/>
<path d="M57.6357 270.6L56.4053 267.428H52.3994L51.1758 270.6H50L53.9102 260.565H54.9561L58.8389 270.6H57.6357ZM56.0566 266.396L54.8877 263.245C54.8604 263.162 54.8148 263.028 54.751 262.841C54.6917 262.654 54.6302 262.461 54.5664 262.26C54.5026 262.06 54.4502 261.898 54.4092 261.775C54.3636 261.962 54.3135 262.148 54.2588 262.335C54.2087 262.518 54.1585 262.689 54.1084 262.848C54.0583 263.003 54.015 263.135 53.9785 263.245L52.7891 266.396H56.0566Z" fill="#6C757D"/>
<path d="M57.0068 313.541C57.0068 314.133 56.8587 314.639 56.5625 315.058C56.2708 315.473 55.8607 315.79 55.332 316.009C54.8034 316.227 54.1813 316.337 53.4658 316.337C53.0876 316.337 52.7298 316.319 52.3926 316.282C52.0553 316.246 51.7454 316.193 51.4629 316.125C51.1803 316.056 50.932 315.972 50.7178 315.872V314.758C51.0596 314.899 51.4766 315.031 51.9688 315.154C52.4609 315.273 52.9759 315.332 53.5137 315.332C54.015 315.332 54.4388 315.266 54.7852 315.134C55.1315 314.997 55.3936 314.803 55.5713 314.553C55.7536 314.297 55.8447 313.992 55.8447 313.637C55.8447 313.295 55.7695 313.01 55.6191 312.782C55.4688 312.55 55.2181 312.34 54.8672 312.153C54.5208 311.962 54.0469 311.759 53.4453 311.545C53.0215 311.394 52.6478 311.23 52.3242 311.053C52.0007 310.87 51.7295 310.665 51.5107 310.437C51.292 310.209 51.1257 309.945 51.0117 309.644C50.9023 309.344 50.8477 308.999 50.8477 308.612C50.8477 308.079 50.9821 307.623 51.251 307.245C51.5244 306.862 51.9004 306.57 52.3789 306.37C52.862 306.165 53.4157 306.062 54.04 306.062C54.5732 306.062 55.0654 306.112 55.5166 306.213C55.9723 306.313 56.3893 306.447 56.7676 306.616L56.4053 307.614C56.0452 307.464 55.6624 307.338 55.2568 307.238C54.8558 307.138 54.4411 307.088 54.0127 307.088C53.5843 307.088 53.222 307.152 52.9258 307.279C52.6341 307.402 52.4108 307.578 52.2559 307.805C52.1009 308.033 52.0234 308.305 52.0234 308.619C52.0234 308.97 52.0964 309.262 52.2422 309.494C52.3926 309.726 52.6296 309.934 52.9531 310.116C53.2812 310.294 53.7142 310.481 54.252 310.677C54.8398 310.891 55.3389 311.119 55.749 311.36C56.1592 311.597 56.4714 311.889 56.6855 312.235C56.8997 312.577 57.0068 313.012 57.0068 313.541Z" fill="#6C757D"/>
<path d="M58.3467 351.806L54.7578 361.8H53.5889L50 351.806H51.2168L53.5547 358.389C53.6504 358.653 53.7347 358.906 53.8076 359.148C53.8851 359.389 53.9535 359.622 54.0127 359.845C54.0719 360.068 54.1243 360.285 54.1699 360.494C54.2155 360.285 54.2679 360.068 54.3271 359.845C54.3864 359.617 54.4548 359.382 54.5322 359.141C54.6097 358.895 54.6963 358.637 54.792 358.368L57.1162 351.806H58.3467Z" fill="#6C757D"/>
<path d="M88.4853 354.8L84.2426 359.043L80 354.8" stroke="#8B8F92" stroke-width="2"/>
<path d="M55.6396 398.288C55.0882 398.288 54.5915 398.383 54.1494 398.575C53.7119 398.762 53.3382 399.035 53.0283 399.395C52.723 399.751 52.4883 400.181 52.3242 400.687C52.1602 401.193 52.0781 401.763 52.0781 402.396C52.0781 403.235 52.208 403.964 52.4678 404.584C52.7321 405.199 53.124 405.675 53.6436 406.012C54.1676 406.35 54.8216 406.518 55.6055 406.518C56.0521 406.518 56.4714 406.482 56.8633 406.409C57.2598 406.331 57.6449 406.236 58.0186 406.122V407.133C57.654 407.27 57.2712 407.37 56.8701 407.434C56.4691 407.503 55.9928 407.537 55.4414 407.537C54.4251 407.537 53.5752 407.327 52.8916 406.908C52.2126 406.484 51.7021 405.887 51.3604 405.117C51.0231 404.347 50.8545 403.437 50.8545 402.389C50.8545 401.633 50.9593 400.942 51.1689 400.318C51.3831 399.689 51.693 399.147 52.0986 398.691C52.5088 398.235 53.0101 397.884 53.6025 397.638C54.1995 397.388 54.8831 397.262 55.6533 397.262C56.1592 397.262 56.6468 397.312 57.1162 397.413C57.5856 397.513 58.0094 397.656 58.3877 397.843L57.9229 398.828C57.6038 398.682 57.2529 398.557 56.8701 398.452C56.4919 398.342 56.0817 398.288 55.6396 398.288Z" fill="#6C757D"/>
<path d="M50.084 441.159H47.9102V439.788H50.084C50.4199 439.788 50.6934 439.733 50.9043 439.624C51.1152 439.51 51.2695 439.354 51.3672 439.155C51.4648 438.956 51.5137 438.731 51.5137 438.481C51.5137 438.227 51.4648 437.991 51.3672 437.772C51.2695 437.553 51.1152 437.378 50.9043 437.245C50.6934 437.112 50.4199 437.046 50.084 437.046H48.5195V444.2H46.7617V435.669H50.084C50.752 435.669 51.3242 435.79 51.8008 436.032C52.2812 436.27 52.6484 436.6 52.9023 437.022C53.1562 437.444 53.2832 437.927 53.2832 438.469C53.2832 439.02 53.1562 439.497 52.9023 439.899C52.6484 440.302 52.2812 440.612 51.8008 440.831C51.3242 441.05 50.752 441.159 50.084 441.159ZM56.9922 437.128L54.6719 444.2H52.8027L55.9727 435.669H57.1621L56.9922 437.128ZM58.9199 444.2L56.5938 437.128L56.4062 435.669H57.6074L60.7949 444.2H58.9199ZM58.8145 441.024V442.401H54.3086V441.024H58.8145ZM68.2422 439.741V443.122C68.1094 443.282 67.9043 443.456 67.627 443.643C67.3496 443.827 66.9922 443.985 66.5547 444.118C66.1172 444.251 65.5879 444.317 64.9668 444.317C64.416 444.317 63.9141 444.227 63.4609 444.048C63.0078 443.864 62.6172 443.596 62.2891 443.245C61.9648 442.893 61.7148 442.464 61.5391 441.956C61.3633 441.444 61.2754 440.86 61.2754 440.204V439.671C61.2754 439.014 61.3594 438.43 61.5273 437.919C61.6992 437.407 61.9434 436.975 62.2598 436.624C62.5762 436.272 62.9531 436.005 63.3906 435.821C63.8281 435.637 64.3145 435.546 64.8496 435.546C65.5918 435.546 66.2012 435.667 66.6777 435.909C67.1543 436.147 67.5176 436.479 67.7676 436.905C68.0215 437.327 68.1777 437.811 68.2363 438.358H66.5312C66.4883 438.069 66.4062 437.817 66.2852 437.602C66.1641 437.387 65.9902 437.219 65.7637 437.098C65.541 436.977 65.252 436.917 64.8965 436.917C64.6035 436.917 64.3418 436.977 64.1113 437.098C63.8848 437.216 63.6934 437.389 63.5371 437.62C63.3809 437.85 63.2617 438.135 63.1797 438.475C63.0977 438.815 63.0566 439.21 63.0566 439.659V440.204C63.0566 440.649 63.0996 441.044 63.1855 441.387C63.2715 441.727 63.3984 442.014 63.5664 442.249C63.7383 442.479 63.9492 442.653 64.1992 442.77C64.4492 442.887 64.7402 442.946 65.0723 442.946C65.3496 442.946 65.5801 442.923 65.7637 442.876C65.9512 442.829 66.1016 442.772 66.2148 442.706C66.332 442.635 66.4219 442.569 66.4844 442.507V440.995H64.8789V439.741H68.2422ZM75.3848 442.829V444.2H70.8438V442.829H75.3848ZM71.418 435.669V444.2H69.6602V435.669H71.418ZM74.793 439.143V440.479H70.8438V439.143H74.793ZM75.3789 435.669V437.046H70.8438V435.669H75.3789ZM80.8516 441.968C80.8516 441.815 80.8281 441.678 80.7812 441.557C80.7383 441.432 80.6562 441.319 80.5352 441.218C80.4141 441.112 80.2441 441.009 80.0254 440.907C79.8066 440.805 79.5234 440.7 79.1758 440.591C78.7891 440.466 78.4219 440.325 78.0742 440.169C77.7305 440.012 77.4258 439.831 77.1602 439.624C76.8984 439.413 76.6914 439.169 76.5391 438.891C76.3906 438.614 76.3164 438.292 76.3164 437.925C76.3164 437.569 76.3945 437.247 76.5508 436.958C76.707 436.665 76.9258 436.415 77.207 436.208C77.4883 435.997 77.8203 435.835 78.2031 435.721C78.5898 435.608 79.0137 435.552 79.4746 435.552C80.1035 435.552 80.6523 435.665 81.1211 435.891C81.5898 436.118 81.9531 436.428 82.2109 436.823C82.4727 437.218 82.6035 437.669 82.6035 438.177H80.8574C80.8574 437.927 80.8047 437.708 80.6992 437.52C80.5977 437.329 80.4414 437.178 80.2305 437.069C80.0234 436.96 79.7617 436.905 79.4453 436.905C79.1406 436.905 78.8867 436.952 78.6836 437.046C78.4805 437.135 78.3281 437.259 78.2266 437.415C78.125 437.567 78.0742 437.739 78.0742 437.93C78.0742 438.075 78.1094 438.206 78.1797 438.323C78.2539 438.44 78.3633 438.55 78.5078 438.651C78.6523 438.753 78.8301 438.848 79.041 438.938C79.252 439.028 79.4961 439.116 79.7734 439.202C80.2383 439.343 80.6465 439.501 80.998 439.677C81.3535 439.852 81.6504 440.05 81.8887 440.268C82.127 440.487 82.3066 440.735 82.4277 441.012C82.5488 441.29 82.6094 441.604 82.6094 441.956C82.6094 442.327 82.5371 442.659 82.3926 442.952C82.248 443.245 82.0391 443.493 81.7656 443.696C81.4922 443.899 81.166 444.053 80.7871 444.159C80.4082 444.264 79.9844 444.317 79.5156 444.317C79.0938 444.317 78.6777 444.262 78.2676 444.153C77.8574 444.04 77.4844 443.87 77.1484 443.643C76.8164 443.417 76.5508 443.128 76.3516 442.776C76.1523 442.425 76.0527 442.009 76.0527 441.528H77.8164C77.8164 441.794 77.8574 442.018 77.9395 442.202C78.0215 442.385 78.1367 442.534 78.2852 442.647C78.4375 442.76 78.6172 442.843 78.8242 442.893C79.0352 442.944 79.2656 442.969 79.5156 442.969C79.8203 442.969 80.0703 442.927 80.2656 442.841C80.4648 442.755 80.6113 442.635 80.7051 442.483C80.8027 442.331 80.8516 442.159 80.8516 441.968Z" fill="#8591A4"/>
<g clip-path="url(#clip1_23_3611)">
<path d="M67.6666 480.333H71.6666V489.667H62.3333V485.667" stroke="#FD7E14" stroke-width="1.2" stroke-miterlimit="10" stroke-linecap="square"/>
<path d="M67.6666 476.333H58.3333V485.667H67.6666V476.333Z" stroke="#FD7E14" stroke-width="1.2" stroke-miterlimit="10" stroke-linecap="square"/>
</g>
<g clip-path="url(#clip2_23_3611)">
<path d="M61.3333 533.267H68.6666C70.3333 533.267 71.6666 534.6 71.6666 536.267C71.6666 537.933 70.3333 539.267 68.6666 539.267H61.3333" stroke="#0DCAF0" stroke-width="1.2" stroke-miterlimit="10"/>
<path d="M61.3333 539.267C62.9902 539.267 64.3333 537.923 64.3333 536.267C64.3333 534.61 62.9902 533.267 61.3333 533.267C59.6765 533.267 58.3333 534.61 58.3333 536.267C58.3333 537.923 59.6765 539.267 61.3333 539.267Z" stroke="#0DCAF0" stroke-width="1.2" stroke-miterlimit="10" stroke-linecap="square"/>
<path d="M68.6666 547.933H61.3333C59.6666 547.933 58.3333 546.6 58.3333 544.933C58.3333 543.267 59.6666 541.933 61.3333 541.933H68.6666" stroke="#0DCAF0" stroke-width="1.2" stroke-miterlimit="10"/>
<path d="M68.6666 547.933C70.3235 547.933 71.6666 546.59 71.6666 544.933C71.6666 543.276 70.3235 541.933 68.6666 541.933C67.0098 541.933 65.6666 543.276 65.6666 544.933C65.6666 546.59 67.0098 547.933 68.6666 547.933Z" stroke="#0DCAF0" stroke-width="1.2" stroke-miterlimit="10" stroke-linecap="square"/>
</g>
<g clip-path="url(#clip3_23_3611)">
<path d="M61.6667 597.7H61.1667V598.2V600.2C61.1667 600.509 61.2896 600.806 61.5084 601.025C61.7272 601.244 62.0239 601.367 62.3334 601.367H67.6667C67.9761 601.367 68.2729 601.244 68.4916 601.025C68.7104 600.806 68.8334 600.509 68.8334 600.2V598.2V597.7H68.3334H67H66.5V598.2V599.033H63.5V598.2V597.7H63H61.6667ZM71.7845 605.651L72.1381 606.005L71.7845 605.651C71.7533 605.682 71.7109 605.7 71.6667 605.7H58.3334C58.2891 605.7 58.2468 605.682 58.2155 605.651C58.1842 605.62 58.1667 605.578 58.1667 605.533V596.2C58.1667 596.156 58.1842 596.113 58.2155 596.082C58.2468 596.051 58.2892 596.033 58.3334 596.033H71.6667C71.7109 596.033 71.7533 596.051 71.7845 596.082C71.8158 596.113 71.8334 596.156 71.8334 596.2V605.533C71.8334 605.578 71.8158 605.62 71.7845 605.651Z" fill="#20C997" stroke="#20C997"/>
<path d="M60.1667 593.7V593.367H69.8334V593.7H60.1667Z" fill="#20C997" stroke="#20C997"/>
<path d="M68.3334 590.2H61.6667V591.533H68.3334V590.2Z" fill="#20C997"/>
</g>
<g clip-path="url(#clip4_23_3611)">
<path d="M71 648.633H60.1667V648.3H71.6667C71.7585 648.3 71.8334 648.375 71.8334 648.467V661.967H71.5V649.133V648.633H71Z" fill="#F56565" stroke="#F56565"/>
<path d="M64.3334 660.967H64.8334V660.467V659.133V658.633H64.3334H60.3334H59.8334V659.133V660.467V660.967H60.3334H64.3334ZM67 658.3H67.5V657.8V656.467V655.967H67H60.3334H59.8334V656.467V657.8V658.3H60.3334H67ZM67 655.633H67.5V655.133V653.8V653.3H67H60.3334H59.8334V653.8V655.133V655.633H60.3334H67ZM58.3334 650.967H69C69.0919 650.967 69.1667 651.041 69.1667 651.133V663.133C69.1667 663.225 69.0919 663.3 69 663.3H58.3334C58.2415 663.3 58.1667 663.225 58.1667 663.133V651.133C58.1667 651.041 58.2415 650.967 58.3334 650.967Z" fill="#F56565" stroke="#F56565"/>
</g>
<path d="M0 698.6H130" stroke="url(#paint1_linear_23_3611)"/>
<path d="M52.3809 727.6H50.5234L50.5352 726.229H52.3809C52.8418 726.229 53.2305 726.125 53.5469 725.918C53.8633 725.707 54.1016 725.401 54.2617 724.998C54.4258 724.596 54.5078 724.11 54.5078 723.539V723.123C54.5078 722.686 54.4609 722.301 54.3672 721.969C54.2773 721.637 54.1426 721.358 53.9629 721.131C53.7832 720.905 53.5625 720.735 53.3008 720.621C53.0391 720.504 52.7383 720.446 52.3984 720.446H50.4883V719.069H52.3984C52.9688 719.069 53.4902 719.166 53.9629 719.362C54.4395 719.553 54.8516 719.828 55.1992 720.188C55.5469 720.547 55.8145 720.977 56.002 721.477C56.1934 721.973 56.2891 722.526 56.2891 723.135V723.539C56.2891 724.145 56.1934 724.698 56.002 725.198C55.8145 725.698 55.5469 726.127 55.1992 726.487C54.8555 726.842 54.4434 727.118 53.9629 727.313C53.4863 727.504 52.959 727.6 52.3809 727.6ZM51.5195 719.069V727.6H49.7617V719.069H51.5195ZM64.5742 723.135V723.539C64.5742 724.188 64.4863 724.77 64.3105 725.286C64.1348 725.801 63.8867 726.241 63.5664 726.604C63.2461 726.963 62.8633 727.239 62.418 727.43C61.9766 727.621 61.4863 727.717 60.9473 727.717C60.4121 727.717 59.9219 727.621 59.4766 727.43C59.0352 727.239 58.6523 726.963 58.3281 726.604C58.0039 726.241 57.752 725.801 57.5723 725.286C57.3965 724.77 57.3086 724.188 57.3086 723.539V723.135C57.3086 722.483 57.3965 721.901 57.5723 721.389C57.748 720.873 57.9961 720.434 58.3164 720.071C58.6406 719.707 59.0234 719.43 59.4648 719.239C59.9102 719.047 60.4004 718.952 60.9355 718.952C61.4746 718.952 61.9648 719.047 62.4062 719.239C62.8516 719.43 63.2344 719.707 63.5547 720.071C63.8789 720.434 64.1289 720.873 64.3047 721.389C64.4844 721.901 64.5742 722.483 64.5742 723.135ZM62.7988 723.539V723.123C62.7988 722.67 62.7578 722.272 62.6758 721.928C62.5938 721.584 62.4727 721.295 62.3125 721.061C62.1523 720.827 61.957 720.651 61.7266 720.534C61.4961 720.412 61.2324 720.352 60.9355 720.352C60.6387 720.352 60.375 720.412 60.1445 720.534C59.918 720.651 59.7246 720.827 59.5645 721.061C59.4082 721.295 59.2891 721.584 59.207 721.928C59.125 722.272 59.084 722.67 59.084 723.123V723.539C59.084 723.989 59.125 724.387 59.207 724.735C59.2891 725.078 59.4102 725.37 59.5703 725.608C59.7305 725.842 59.9258 726.02 60.1562 726.141C60.3867 726.262 60.6504 726.323 60.9473 726.323C61.2441 726.323 61.5078 726.262 61.7383 726.141C61.9688 726.02 62.1621 725.842 62.3184 725.608C62.4746 725.37 62.5938 725.078 62.6758 724.735C62.7578 724.387 62.7988 723.989 62.7988 723.539ZM70.7852 724.77H72.5371C72.502 725.344 72.3438 725.854 72.0625 726.299C71.7852 726.745 71.3965 727.092 70.8965 727.342C70.4004 727.592 69.8027 727.717 69.1035 727.717C68.5566 727.717 68.0664 727.623 67.6328 727.436C67.1992 727.245 66.8281 726.971 66.5195 726.616C66.2148 726.26 65.9824 725.83 65.8223 725.327C65.6621 724.823 65.582 724.258 65.582 723.633V723.041C65.582 722.416 65.6641 721.852 65.8281 721.348C65.9961 720.84 66.2344 720.409 66.543 720.053C66.8555 719.698 67.2285 719.424 67.6621 719.233C68.0957 719.041 68.5801 718.946 69.1152 718.946C69.8262 718.946 70.4258 719.075 70.9141 719.332C71.4062 719.59 71.7871 719.946 72.0566 720.399C72.3301 720.852 72.4941 721.368 72.5488 721.946H70.791C70.7715 721.602 70.7031 721.311 70.5859 721.073C70.4688 720.83 70.291 720.649 70.0527 720.528C69.8184 720.403 69.5059 720.34 69.1152 720.34C68.8223 720.34 68.5664 720.395 68.3477 720.504C68.1289 720.614 67.9453 720.78 67.7969 721.002C67.6484 721.225 67.5371 721.506 67.4629 721.846C67.3926 722.182 67.3574 722.577 67.3574 723.03V723.633C67.3574 724.075 67.3906 724.463 67.457 724.799C67.5234 725.131 67.625 725.412 67.7617 725.643C67.9023 725.87 68.082 726.041 68.3008 726.159C68.5234 726.272 68.791 726.328 69.1035 726.328C69.4707 726.328 69.7734 726.27 70.0117 726.153C70.25 726.036 70.4316 725.862 70.5566 725.631C70.6855 725.401 70.7617 725.114 70.7852 724.77ZM78.1328 725.368C78.1328 725.215 78.1094 725.078 78.0625 724.957C78.0195 724.832 77.9375 724.719 77.8164 724.618C77.6953 724.512 77.5254 724.409 77.3066 724.307C77.0879 724.205 76.8047 724.1 76.457 723.991C76.0703 723.866 75.7031 723.725 75.3555 723.569C75.0117 723.412 74.707 723.231 74.4414 723.024C74.1797 722.813 73.9727 722.569 73.8203 722.291C73.6719 722.014 73.5977 721.692 73.5977 721.325C73.5977 720.969 73.6758 720.647 73.832 720.358C73.9883 720.065 74.207 719.815 74.4883 719.608C74.7695 719.397 75.1016 719.235 75.4844 719.121C75.8711 719.008 76.2949 718.952 76.7559 718.952C77.3848 718.952 77.9336 719.065 78.4023 719.291C78.8711 719.518 79.2344 719.828 79.4922 720.223C79.7539 720.618 79.8848 721.069 79.8848 721.577H78.1387C78.1387 721.327 78.0859 721.108 77.9805 720.92C77.8789 720.729 77.7227 720.578 77.5117 720.469C77.3047 720.36 77.043 720.305 76.7266 720.305C76.4219 720.305 76.168 720.352 75.9648 720.446C75.7617 720.536 75.6094 720.659 75.5078 720.815C75.4062 720.967 75.3555 721.139 75.3555 721.33C75.3555 721.475 75.3906 721.606 75.4609 721.723C75.5352 721.84 75.6445 721.95 75.7891 722.051C75.9336 722.153 76.1113 722.248 76.3223 722.338C76.5332 722.428 76.7773 722.516 77.0547 722.602C77.5195 722.743 77.9277 722.901 78.2793 723.077C78.6348 723.252 78.9316 723.45 79.1699 723.668C79.4082 723.887 79.5879 724.135 79.709 724.412C79.8301 724.69 79.8906 725.004 79.8906 725.356C79.8906 725.727 79.8184 726.059 79.6738 726.352C79.5293 726.645 79.3203 726.893 79.0469 727.096C78.7734 727.299 78.4473 727.453 78.0684 727.559C77.6895 727.664 77.2656 727.717 76.7969 727.717C76.375 727.717 75.959 727.662 75.5488 727.553C75.1387 727.44 74.7656 727.27 74.4297 727.043C74.0977 726.817 73.832 726.528 73.6328 726.176C73.4336 725.825 73.334 725.409 73.334 724.928H75.0977C75.0977 725.194 75.1387 725.418 75.2207 725.602C75.3027 725.786 75.418 725.934 75.5664 726.047C75.7188 726.161 75.8984 726.243 76.1055 726.293C76.3164 726.344 76.5469 726.37 76.7969 726.37C77.1016 726.37 77.3516 726.327 77.5469 726.241C77.7461 726.155 77.8926 726.036 77.9863 725.883C78.084 725.731 78.1328 725.559 78.1328 725.368Z" fill="#8591A4"/>
<g clip-path="url(#clip5_23_3611)">
<path d="M61.72 758.683C61.654 758.616 61.5747 758.564 61.4873 758.531C61.3998 758.497 61.3063 758.482 61.2127 758.487C51.8607 758.975 48.406 767.305 48.3727 767.389C48.3239 767.511 48.3118 767.643 48.3379 767.771C48.364 767.899 48.4271 768.017 48.5194 768.109L52.2907 771.881C52.3836 771.973 52.5017 772.037 52.6304 772.063C52.7591 772.088 52.8925 772.076 53.014 772.026C53.0974 771.992 61.3834 768.499 61.9127 759.191C61.918 759.097 61.9037 759.004 61.8705 758.916C61.8373 758.829 61.786 758.749 61.72 758.683ZM56.276 766.009C56.0896 766.196 55.852 766.323 55.5933 766.374C55.3347 766.426 55.0666 766.4 54.8229 766.299C54.5793 766.198 54.371 766.027 54.2245 765.808C54.078 765.588 53.9997 765.33 53.9997 765.067C53.9997 764.803 54.078 764.545 54.2245 764.326C54.371 764.107 54.5793 763.936 54.8229 763.835C55.0666 763.734 55.3347 763.708 55.5933 763.759C55.852 763.811 56.0896 763.938 56.276 764.124C56.526 764.374 56.6664 764.713 56.6664 765.067C56.6664 765.42 56.526 765.759 56.276 766.009Z" fill="#8392AB"/>
<path d="M46.742 770.963C46.9178 770.786 47.1269 770.645 47.3572 770.549C47.5875 770.453 47.8345 770.403 48.084 770.403C48.3335 770.402 48.5807 770.451 48.8113 770.547C49.0419 770.642 49.2515 770.782 49.4279 770.958C49.6044 771.135 49.7442 771.344 49.8395 771.575C49.9348 771.805 49.9837 772.053 49.9832 772.302C49.9828 772.552 49.9331 772.799 49.8371 773.029C49.741 773.259 49.6004 773.468 49.4233 773.644C48.6827 774.385 46 774.4 46 774.4C46 774.4 46 771.703 46.742 770.963Z" fill="#8392AB"/>
<path d="M52.9047 759.961C51.965 759.797 50.9998 759.862 50.0907 760.15C49.1815 760.439 48.3551 760.942 47.6813 761.617C47.3248 761.977 47.0148 762.38 46.7587 762.817C46.6837 762.944 46.6531 763.093 46.6718 763.239C46.6905 763.386 46.7574 763.522 46.862 763.627L48.188 764.953C49.4201 762.998 51.0224 761.302 52.9047 759.961Z" fill="#8392AB"/>
<path d="M60.4393 767.495C60.6029 768.435 60.5378 769.4 60.2495 770.309C59.9613 771.219 59.4584 772.045 58.7833 772.719C58.4235 773.075 58.0203 773.385 57.5833 773.641C57.456 773.716 57.3073 773.747 57.1606 773.728C57.014 773.71 56.8778 773.643 56.7733 773.538L55.4467 772.212C57.4021 770.98 59.0981 769.378 60.4393 767.495Z" fill="#8392AB"/>
</g>
<path d="M88.4853 764.4L84.2426 768.643L80 764.4" stroke="#8B8F92" stroke-width="2"/>
<path d="M54 821.933L59.9333 819.267L54.2666 816.733C54.0666 816.667 53.8667 816.667 53.7333 816.733L48.0667 819.267L54 821.933Z" fill="#8392AB"/>
<path d="M54.6666 823.067V831.067L60.2666 828.6C60.5333 828.467 60.6666 828.267 60.6666 828V820.4L54.6666 823.067Z" fill="#8392AB"/>
<path d="M53.3333 823.067L47.3333 820.4V828C47.3333 828.267 47.4666 828.533 47.7333 828.6L53.3333 831.067V823.067Z" fill="#8392AB"/>
<path d="M88.4853 822L84.2426 826.243L80 822" stroke="#8B8F92" stroke-width="2"/>
<path d="M61.3333 875.767H46.6667C46.5746 875.767 46.5 875.692 46.5 875.6C46.5 875.508 46.5746 875.433 46.6667 875.433H61.3333C61.4254 875.433 61.5 875.508 61.5 875.6C61.5 875.692 61.4254 875.767 61.3333 875.767Z" fill="#8392AB" stroke="#8392AB"/>
<path d="M54.6667 879.767H46.6667C46.5746 879.767 46.5 879.692 46.5 879.6C46.5 879.508 46.5746 879.433 46.6667 879.433H54.6667C54.7587 879.433 54.8333 879.508 54.8333 879.6C54.8333 879.692 54.7587 879.767 54.6667 879.767Z" fill="#8392AB" stroke="#8392AB"/>
<path d="M61.3333 884.267H46.6667C46.2985 884.267 46 883.968 46 883.6C46 883.232 46.2985 882.933 46.6667 882.933H61.3333C61.7015 882.933 62 883.232 62 883.6C62 883.968 61.7015 884.267 61.3333 884.267Z" fill="#8392AB"/>
<path d="M54.6667 888.267H46.6667C46.2985 888.267 46 887.968 46 887.6C46 887.232 46.2985 886.933 46.6667 886.933H54.6667C55.0348 886.933 55.3333 887.232 55.3333 887.6C55.3333 887.968 55.0348 888.267 54.6667 888.267Z" fill="#8392AB"/>
<path d="M88.4853 879.6L84.2426 883.843L80 879.6" stroke="#8B8F92" stroke-width="2"/>
<g clip-path="url(#clip6_23_3611)">
<g filter="url(#filter0_d_23_3611)">
<path d="M111.17 961.964L92.5472 985.647C92.2664 986.002 91.751 986.064 91.3939 985.786L69.303 968.474C68.9477 968.193 68.8857 967.679 69.1642 967.323L91.0154 939.533C91.2962 939.178 91.8115 939.116 92.1687 939.394L110.143 953.48L110.472 956.21L110.825 959.127L111.17 961.964Z" fill="black"/>
</g>
<path d="M111.17 961.964L92.5472 985.647C92.2664 986.002 91.751 986.064 91.3939 985.786L69.303 968.474C68.9477 968.193 68.8857 967.679 69.1642 967.323L91.0154 939.533C91.2962 939.178 91.8115 939.116 92.1687 939.394L110.143 953.48L110.472 956.21L110.825 959.127L111.17 961.964Z" fill="white"/>
<path d="M107.18 958.6C107.198 958.748 106.872 959.431 111.228 963.16L111.74 962.538L107.18 958.6Z" fill="#CECECE"/>
<path d="M107.45 957.574C107.018 958.129 107.114 958.931 107.664 959.368L111.74 962.59L110.649 953.47L107.45 957.574Z" fill="#EDEDED"/>
<path d="M82.1534 971.094C82.2424 970.961 82.1534 970.788 81.9752 970.801C81.7347 970.825 81.4922 970.823 81.252 970.797L80.9245 970.726C80.6925 970.699 80.6473 970.573 80.7889 970.347C81.0412 970.317 80.9936 969.97 80.7419 969.987C80.4309 970.008 80.0159 970.041 79.7609 969.829C79.6818 969.757 79.6153 969.673 79.5639 969.582C79.6533 969.578 79.7421 969.567 79.8289 969.546C79.9009 969.529 79.9346 969.461 79.9512 969.403C79.9993 969.238 79.9944 969.106 80.0065 968.98C81.1364 968.796 82.3088 968.372 83.1604 967.769C83.3264 967.652 83.2102 967.438 83.0198 967.443C82.1307 967.466 81.2155 967.628 80.416 968.004C80.1338 968.136 79.8566 968.3 79.7144 968.572C79.7013 968.601 79.6899 968.63 79.6801 968.659C79.4195 968.695 79.1567 968.715 78.8933 968.72C78.542 968.73 78.1914 968.687 77.8547 968.594C77.6129 968.523 77.2461 968.42 77.2461 968.154C77.873 968.211 78.4861 968.116 78.6039 967.58C78.7804 966.774 77.3778 967.258 76.9473 967.755C76.6574 967.706 76.3735 967.63 76.0997 967.529C75.8645 967.444 75.7123 967.779 75.948 967.863C76.2265 967.96 76.5129 968.037 76.8046 968.092C76.716 968.959 78.4047 969.101 79.0261 969.082C79.2109 969.075 79.4012 969.061 79.5932 969.039C79.5705 969.252 79.5932 969.23 79.2563 969.225C79.0853 969.225 78.9746 969.373 79.0709 969.513C79.2491 969.771 79.3957 970.085 79.6972 970.235C79.7923 970.28 79.8939 970.312 79.9988 970.33C79.9735 970.374 79.9693 970.426 79.9872 970.473C80.2273 971.025 80.956 971.165 81.5824 971.175C81.1453 971.596 80.558 971.858 79.9285 971.911C78.9702 971.981 78.2736 971.365 77.6572 970.775C77.484 970.609 77.1659 970.823 77.3407 970.991C78.013 971.634 78.7555 972.29 79.788 972.28C80.6904 972.269 81.6742 971.804 82.1534 971.094ZM77.8929 967.543C78.2802 967.526 77.8509 967.754 77.7015 967.78C77.6054 967.795 77.5078 967.801 77.4104 967.797C77.4907 967.703 77.7839 967.548 77.8924 967.541L77.8929 967.543ZM80.3092 968.478C80.5444 968.286 80.9566 968.172 81.2542 968.08C81.5858 967.98 81.9266 967.909 82.2723 967.866C81.6257 968.193 80.9305 968.431 80.209 968.571C80.2404 968.539 80.2736 968.507 80.3086 968.478H80.3092Z" fill="#4684AF"/>
<path d="M96.1457 948.253L104.908 955.131C105.248 955.398 105.307 955.89 105.04 956.23C104.773 956.57 104.281 956.63 103.94 956.363L95.1786 949.485C94.8384 949.218 94.7791 948.726 95.0461 948.386C95.3132 948.045 95.8055 947.986 96.1457 948.253Z" fill="#D2D4D8"/>
<path d="M105.054 962.568L88.4072 949.041C88.365 949.006 88.3576 948.943 88.3906 948.899L89.2179 947.808C89.2513 947.765 89.3125 947.757 89.3549 947.791L106.003 961.317C106.045 961.352 106.052 961.415 106.019 961.459L105.192 962.55C105.176 962.572 105.152 962.586 105.126 962.589C105.101 962.593 105.074 962.585 105.054 962.568Z" fill="#D2D4D8"/>
<path d="M103.345 965.418L86.6973 951.891C86.655 951.856 86.6476 951.793 86.6807 951.749L87.508 950.658C87.5414 950.615 87.6025 950.607 87.645 950.641L104.293 964.169C104.335 964.204 104.342 964.267 104.309 964.311L103.482 965.402C103.448 965.446 103.387 965.452 103.345 965.418Z" fill="#D2D4D8"/>
<path d="M101.065 967.699L84.4172 954.171C84.375 954.137 84.3676 954.073 84.4006 954.03L85.2285 952.938C85.2618 952.895 85.323 952.887 85.3655 952.921L102.013 966.449C102.033 966.466 102.046 966.49 102.049 966.516C102.052 966.543 102.045 966.569 102.029 966.59L101.202 967.682C101.169 967.725 101.108 967.733 101.065 967.699Z" fill="#D2D4D8"/>
<path d="M99.3568 969.979L82.7072 956.452C82.665 956.417 82.6576 956.354 82.6906 956.31L83.518 955.218C83.5514 955.175 83.6126 955.167 83.6551 955.201L100.303 968.73C100.345 968.764 100.352 968.827 100.32 968.871L99.4916 969.962C99.4586 970.005 99.3988 970.012 99.3568 969.979Z" fill="#D2D4D8"/>
<path d="M97.6448 973.399L80.9973 959.871C80.955 959.837 80.9476 959.773 80.9807 959.729L81.808 958.638C81.8415 958.595 81.9027 958.587 81.945 958.621L98.5931 972.149C98.6352 972.183 98.6423 972.247 98.6092 972.29L97.7818 973.381C97.7486 973.425 97.6874 973.433 97.6448 973.399Z" fill="#D2D4D8"/>
<path d="M95.935 975.108L79.2869 961.581C79.2449 961.546 79.2377 961.483 79.2709 961.439L80.0982 960.348C80.1316 960.305 80.1927 960.297 80.2352 960.331L96.8828 973.859C96.925 973.893 96.9324 973.957 96.8994 974.001L96.072 975.092C96.0385 975.135 95.9773 975.143 95.935 975.108Z" fill="#D2D4D8"/>
<path d="M87.0719 979.144C86.2557 978.503 85.9055 977.434 86.1847 976.435C86.4639 975.436 87.3175 974.703 88.3474 974.579C89.3774 974.454 90.3808 974.962 90.8899 975.867C91.399 976.771 91.3134 977.892 90.6731 978.709C89.7981 979.822 88.1869 980.017 87.0719 979.144ZM89.8969 975.545C89.0241 974.859 87.7604 975.01 87.0744 975.883C86.3884 976.756 86.5399 978.02 87.4127 978.706C88.2855 979.392 89.5492 979.241 90.2352 978.368C90.9201 977.495 90.7687 976.232 89.8969 975.545Z" fill="#D2D4D8"/>
<g filter="url(#filter1_d_23_3611)">
<path d="M63.2149 967.098L38.4321 984.221C38.3555 984.273 38.2519 984.253 38.2001 984.175L17.7184 953.19C17.667 953.112 17.6873 953.006 17.7636 952.953L42.548 935.829C42.6245 935.776 42.728 935.797 42.7795 935.875L63.2612 966.86C63.2863 966.898 63.2955 966.944 63.2868 966.989C63.2781 967.034 63.2522 967.073 63.2149 967.098Z" fill="black"/>
</g>
<path d="M63.2149 967.098L38.4321 984.221C38.3555 984.273 38.2519 984.253 38.2001 984.175L17.7184 953.19C17.667 953.112 17.6873 953.006 17.7636 952.953L42.548 935.829C42.6245 935.776 42.728 935.797 42.7795 935.875L63.2612 966.86C63.2863 966.898 63.2955 966.944 63.2868 966.989C63.2781 967.034 63.2522 967.073 63.2149 967.098Z" fill="white"/>
<path d="M31.3224 948.746L23.2597 954.59C23.2097 954.626 23.1419 954.612 23.1081 954.558L22.2686 953.226C22.235 953.173 22.2481 953.1 22.298 953.064L30.3607 947.22C30.4107 947.184 30.4784 947.198 30.5123 947.251L31.3512 948.583C31.3849 948.637 31.372 948.71 31.3224 948.746Z" fill="#D2D4D8"/>
<path d="M44.9998 944.678L25.0001 958.011C24.9485 958.045 24.8788 958.032 24.8438 957.981L23.9794 956.717C23.9446 956.666 23.9579 956.597 24.0091 956.563L44.0093 943.23C44.0338 943.213 44.0642 943.206 44.0936 943.212C44.123 943.217 44.1488 943.235 44.1651 943.259L45.0312 944.524C45.0656 944.575 45.0516 944.644 44.9998 944.678Z" fill="#D2D4D8"/>
<path d="M47.2805 948.098L27.282 961.43C27.2576 961.447 27.2271 961.454 27.1977 961.448C27.1683 961.442 27.1425 961.425 27.1263 961.4L26.2603 960.136C26.2429 960.112 26.2363 960.082 26.242 960.053C26.2477 960.024 26.2653 959.998 26.2906 959.982L46.289 946.65C46.3135 946.633 46.344 946.626 46.3734 946.632C46.4028 946.638 46.4286 946.655 46.4448 946.68L47.3108 947.943C47.3454 947.994 47.3319 948.063 47.2805 948.098Z" fill="#D2D4D8"/>
<path d="M50.1312 951.517L30.131 964.85C30.1065 964.867 30.076 964.874 30.0466 964.868C30.0172 964.862 29.9914 964.845 29.9752 964.82L29.1092 963.556C29.0746 963.506 29.0881 963.437 29.1395 963.402L49.1376 950.069C49.1891 950.035 49.259 950.048 49.2939 950.099L50.1593 951.363C50.1767 951.387 50.1836 951.417 50.1783 951.446C50.173 951.475 50.156 951.5 50.1312 951.517Z" fill="#D2D4D8"/>
<path d="M51.8407 954.368L31.8423 967.701C31.7908 967.735 31.7209 967.722 31.686 967.671L30.82 966.407C30.8028 966.383 30.7963 966.352 30.802 966.323C30.8077 966.294 30.8252 966.269 30.8503 966.253L50.8487 952.92C50.8732 952.903 50.9038 952.896 50.9333 952.902C50.9629 952.908 50.9888 952.925 51.005 952.95L51.871 954.214C51.9053 954.265 51.8918 954.333 51.8407 954.368Z" fill="#D2D4D8"/>
<path d="M54.1214 957.814L39.8049 967.701C39.7542 967.735 39.6855 967.722 39.6512 967.67L38.7997 966.383C38.7828 966.358 38.7764 966.327 38.782 966.298C38.7876 966.268 38.8048 966.242 38.8295 966.226L53.146 956.339C53.1967 956.304 53.2654 956.318 53.2997 956.37L54.1511 957.657C54.1852 957.709 54.1719 957.779 54.1214 957.814Z" fill="#D2D4D8"/>
<path d="M56.4002 961.206L36.4015 974.541C36.3501 974.575 36.2802 974.562 36.2452 974.511L35.3792 973.247C35.3445 973.196 35.3581 973.127 35.4095 973.093L55.4082 959.759C55.4598 959.725 55.5294 959.738 55.5645 959.788L56.4305 961.053C56.4473 961.077 56.4536 961.107 56.4479 961.136C56.4422 961.164 56.425 961.19 56.4002 961.206Z" fill="#D2D4D8"/>
<path d="M58.6808 964.626L38.682 977.961C38.6304 977.995 38.5605 977.982 38.5256 977.931L37.6602 976.667C37.643 976.643 37.6364 976.613 37.642 976.584C37.6476 976.555 37.6649 976.53 37.69 976.513L57.6887 963.179C57.7403 963.145 57.8102 963.158 57.8451 963.209L58.7111 964.473C58.7454 964.523 58.7318 964.592 58.6808 964.626Z" fill="#D2D4D8"/>
<g filter="url(#filter2_d_23_3611)">
<path d="M43.4671 967.717C43.3586 967.736 43.2551 967.664 43.2353 967.556L36.503 930.106C36.484 929.997 36.5562 929.894 36.6645 929.874L67.1533 924.403C67.2616 924.384 67.3648 924.456 67.3852 924.564L74.1169 962.014C74.1362 962.122 74.0642 962.226 73.9559 962.246L43.4671 967.717Z" fill="black"/>
</g>
<path d="M43.4671 967.717C43.3586 967.736 43.2551 967.664 43.2353 967.556L36.503 930.106C36.484 929.997 36.5562 929.894 36.6645 929.874L67.1533 924.403C67.2616 924.384 67.3648 924.456 67.3852 924.564L74.1169 962.014C74.1362 962.122 74.0642 962.226 73.9559 962.246L43.4671 967.717Z" fill="white"/>
<path d="M46.9268 946.254L50.6058 945.593L52.475 956.003L48.796 956.663L46.9268 946.254Z" fill="#D2D4D8"/>
<path d="M51.8248 948.27L55.5038 947.61L56.8691 955.213L53.1901 955.874L51.8248 948.27Z" fill="#D2D4D8"/>
<path d="M56.5717 949.74L60.2507 949.079L61.2122 954.434L57.5332 955.095L56.5717 949.74Z" fill="#D2D4D8"/>
<path d="M60.2344 945.39L63.9134 944.729L65.5173 953.661L61.8383 954.322L60.2344 945.39Z" fill="#D2D4D8"/>
<path d="M55.8012 933.807L40.8368 936.369C40.7849 936.377 40.7358 936.344 40.7262 936.294L40.4912 935.048C40.4829 934.999 40.5175 934.952 40.5692 934.943L55.5336 932.381C55.5855 932.373 55.6346 932.406 55.6442 932.455L55.8786 933.701C55.8874 933.75 55.853 933.797 55.8012 933.807Z" fill="#D2D4D8"/>
<path d="M62.6424 935.494L40.8319 939.219C40.7807 939.227 40.7323 939.194 40.7229 939.146L40.4911 937.92C40.4832 937.872 40.5172 937.826 40.568 937.817L62.3785 934.091C62.4296 934.083 62.4779 934.116 62.4875 934.164L62.7187 935.39C62.727 935.438 62.6932 935.484 62.6424 935.494Z" fill="#D2D4D8"/>
<path d="M66.6338 937.227L41.9725 941.499C41.9212 941.507 41.8728 941.474 41.8631 941.424L41.6312 940.178C41.6229 940.128 41.6572 940.081 41.7083 940.072L66.3669 935.801C66.4182 935.793 66.4666 935.826 66.4763 935.875L66.7087 937.121C66.7171 937.17 66.6841 937.217 66.6338 937.227Z" fill="#D2D4D8"/>
<path d="M45.8814 959.423L61.9563 956.537C62.3645 956.463 62.7548 956.735 62.8281 957.143C62.9014 957.551 62.6299 957.942 62.2217 958.015L46.1468 960.901C45.7387 960.975 45.3483 960.703 45.275 960.295C45.2018 959.887 45.4732 959.497 45.8814 959.423Z" fill="#D2D4D8"/>
<path d="M70.6238 960.027L45.9624 964.299C45.9112 964.306 45.8628 964.274 45.8531 964.224L45.6212 962.978C45.6129 962.928 45.6472 962.881 45.6983 962.872L70.3569 958.601C70.4082 958.593 70.4566 958.626 70.4663 958.675L70.6987 959.921C70.7071 959.97 70.6741 960.017 70.6238 960.027Z" fill="#D2D4D8"/>
<path d="M55.2289 942.853L42.5458 944.919C42.494 944.926 42.4451 944.895 42.4355 944.848L42.2012 943.667C42.1931 943.62 42.2275 943.576 42.2789 943.567L54.9647 941.501C55.0164 941.494 55.0652 941.525 55.075 941.571L55.3088 942.753C55.3171 942.801 55.2813 942.846 55.2289 942.853Z" fill="#D2D4D8"/>
<path d="M67.2017 940.685L56.2222 942.639C56.171 942.647 56.1226 942.613 56.1129 942.562L55.8813 941.283C55.8727 941.232 55.9071 941.184 55.9583 941.175L66.9378 939.221C66.9891 939.213 67.0376 939.247 67.0471 939.297L67.2787 940.576C67.2873 940.627 67.253 940.676 67.2017 940.685Z" fill="#D2D4D8"/>
<path d="M57.2664 931.518L64.7104 930.181C65.1186 930.108 65.5089 930.38 65.5822 930.788C65.6555 931.196 65.384 931.586 64.9758 931.66L57.5319 932.996C57.1237 933.07 56.7334 932.798 56.6601 932.39C56.5868 931.982 56.8582 931.591 57.2664 931.518Z" fill="#D2D4D8"/>
<g opacity="0.2">
<path d="M86.512 976.261L57.157 966.728C57.1069 966.711 57.0653 966.676 57.0415 966.63C57.0176 966.583 57.0135 966.529 57.0299 966.48L68.8866 930.805C68.9213 930.702 69.0336 930.646 69.1381 930.68L98.4931 940.213C98.5973 940.247 98.6541 940.358 98.6202 940.461L86.7618 976.134C86.7276 976.237 86.6163 976.293 86.512 976.261Z" fill="#3D3D3D"/>
<path d="M84.2937 941.96L80.0397 949.236L71.9904 951.914C73.1962 955.455 76.6237 957.784 80.4006 957.627C84.1775 957.471 87.3957 954.867 88.2974 951.238C89.1991 947.609 87.5675 943.828 84.2937 941.96Z" fill="#3D3D3D"/>
<path d="M83.8466 940.552C81.3953 939.153 78.3992 939.053 75.8581 940.287L79.5953 947.825L83.8466 940.552Z" fill="#3D3D3D"/>
<path d="M74.9145 941.003C71.0797 942.852 69.2334 947.23 70.6046 951.224L78.6539 948.546L74.9145 941.003Z" fill="#3D3D3D"/>
<path d="M74.6043 960.382L64.0353 956.948C64.0138 956.942 63.9959 956.927 63.9856 956.907C63.9753 956.888 63.9735 956.865 63.9805 956.843L64.3427 955.753C64.3496 955.731 64.3652 955.713 64.3859 955.702C64.4065 955.692 64.4306 955.691 64.4523 955.698L75.0213 959.131C75.0435 959.137 75.0619 959.153 75.0723 959.173C75.0826 959.194 75.084 959.218 75.0761 959.239L74.7139 960.33C74.7063 960.351 74.6905 960.369 74.6699 960.378C74.6493 960.388 74.6257 960.389 74.6043 960.382Z" fill="#3D3D3D"/>
<path d="M79.3531 964.572L63.2424 959.34C63.2209 959.333 63.2029 959.318 63.1926 959.298C63.1824 959.279 63.1805 959.256 63.1876 959.234L63.5498 958.143C63.5565 958.121 63.5721 958.103 63.5928 958.093C63.6135 958.083 63.6376 958.081 63.6594 958.089L79.7701 963.322C79.8145 963.336 79.8389 963.383 79.8249 963.427L79.4621 964.518C79.4554 964.54 79.4399 964.558 79.4193 964.568C79.3987 964.579 79.3748 964.58 79.3531 964.572Z" fill="#3D3D3D"/>
<path d="M73.1253 965.593L62.33 962.086C62.2856 962.072 62.2612 962.025 62.2752 961.981L62.638 960.89C62.6447 960.869 62.6598 960.851 62.6797 960.841C62.6997 960.831 62.7229 960.829 62.7443 960.836L73.5395 964.343C73.5842 964.357 73.6087 964.405 73.5943 964.449L73.2316 965.54C73.2169 965.583 73.1696 965.607 73.1253 965.593Z" fill="#3D3D3D"/>
<path d="M81.3145 963.824L86.1345 965.39C86.4779 965.501 86.6659 965.87 86.5544 966.214C86.5539 966.215 86.5534 966.217 86.553 966.218C86.438 966.564 86.0657 966.752 85.7192 966.639L80.8991 965.074C80.5557 964.962 80.3677 964.593 80.4793 964.25C80.4797 964.249 80.4802 964.247 80.4807 964.246C80.5956 963.9 80.968 963.712 81.3145 963.824Z" fill="#3D3D3D"/>
<path d="M76.6859 959.672L86.9285 962.999C87.2719 963.111 87.4599 963.48 87.3483 963.823C87.3479 963.824 87.3474 963.826 87.3469 963.827C87.232 964.173 86.8596 964.361 86.5131 964.249L76.2706 960.922C75.9271 960.81 75.7391 960.441 75.8507 960.098C75.8512 960.097 75.8516 960.095 75.8521 960.094C75.967 959.748 76.3394 959.56 76.6859 959.672Z" fill="#3D3D3D"/>
</g>
<g filter="url(#filter3_d_23_3611)">
<path d="M87.6506 972.27L58.2966 962.737C58.1924 962.703 58.1358 962.591 58.17 962.488L70.028 926.815C70.0627 926.712 70.175 926.656 70.2795 926.69L99.6334 936.223C99.7377 936.257 99.7943 936.368 99.76 936.472L87.9021 972.145C87.8674 972.248 87.7551 972.304 87.6506 972.27Z" fill="black"/>
</g>
<path d="M87.6506 972.27L58.2966 962.737C58.1924 962.703 58.1358 962.591 58.17 962.488L70.028 926.815C70.0627 926.712 70.175 926.656 70.2795 926.69L99.6334 936.223C99.7377 936.257 99.7943 936.368 99.76 936.472L87.9021 972.145C87.8674 972.248 87.7551 972.304 87.6506 972.27Z" fill="white"/>
<path d="M85.4122 938.08L81.3109 945.488L73.55 948.215C74.7125 951.821 78.0172 954.192 81.6588 954.032C85.3005 953.873 88.4035 951.222 89.2729 947.527C90.1422 943.832 88.5688 939.982 85.4122 938.08Z" fill="#D2D4D8"/>
<path opacity="0.490782" d="M84.95 937.024C84.4072 936.71 83.8337 936.453 83.2386 936.256C80.9845 935.512 78.5291 935.683 76.4 936.735L80.4 944.92L84.95 937.024Z" fill="#6977E9"/>
<path d="M76.3782 937.51C72.2638 939.365 70.2826 943.761 71.7539 947.77L80.39 945.082L76.3782 937.51Z" fill="#D2D4D8"/>
<path d="M76.4802 956.315L65.6313 952.982C65.6086 952.975 65.5898 952.96 65.5792 952.94C65.5686 952.921 65.5671 952.897 65.5751 952.877L65.9474 951.817C65.9545 951.796 65.9705 951.778 65.9917 951.768C66.0129 951.759 66.0376 951.757 66.0599 951.765L76.9089 955.098C76.9314 955.105 76.9502 955.12 76.9607 955.139C76.9713 955.159 76.9729 955.182 76.9651 955.203L76.5927 956.262C76.5858 956.284 76.5699 956.301 76.5486 956.311C76.5273 956.321 76.5026 956.323 76.4802 956.315Z" fill="#D4E8E8"/>
<path d="M81.0568 960.875L65.0593 955.824C65.0374 955.818 65.0192 955.803 65.0089 955.783C64.9986 955.763 64.9972 955.741 65.0049 955.72L65.3651 954.667C65.3719 954.646 65.3874 954.628 65.4079 954.618C65.4285 954.609 65.4523 954.607 65.4739 954.615L81.4714 959.665C81.4927 959.672 81.5105 959.686 81.5207 959.705C81.531 959.724 81.5328 959.747 81.5258 959.767L81.1661 960.82C81.1601 960.842 81.1448 960.86 81.124 960.871C81.1033 960.881 81.0789 960.883 81.0568 960.875Z" fill="#D4E8E8"/>
<path d="M74.2111 962.015L63.3493 958.661C63.3277 958.654 63.3097 958.64 63.2994 958.621C63.289 958.602 63.2871 958.58 63.2942 958.56L63.6587 957.517C63.6654 957.496 63.6811 957.478 63.7019 957.468C63.7228 957.459 63.747 957.457 63.7689 957.465L74.6307 960.819C74.6756 960.832 74.7003 960.878 74.6858 960.92L74.3214 961.963C74.3146 961.984 74.299 962.002 74.2781 962.012C74.2573 962.021 74.233 962.023 74.2111 962.015Z" fill="#D4E8E8"/>
<path d="M82.7226 960.114L87.5127 961.687C87.8604 961.802 88.0497 962.176 87.9354 962.524C87.8212 962.872 87.4466 963.061 87.0989 962.947L82.3089 961.373C81.9611 961.258 81.7719 960.884 81.8861 960.536C82.0004 960.189 82.3749 959.999 82.7226 960.114Z" fill="#D4E8E8"/>
<path d="M88.4626 960.306L77.0296 956.482C77.0079 956.475 76.9898 956.46 76.9794 956.439C76.969 956.419 76.9672 956.395 76.9743 956.373L77.3397 955.24C77.3542 955.195 77.4024 955.169 77.4474 955.184L88.8805 959.007C88.9022 959.014 88.9203 959.03 88.9307 959.051C88.941 959.071 88.9429 959.095 88.9358 959.117L88.5704 960.249C88.5559 960.295 88.5076 960.32 88.4626 960.306Z" fill="#D4E8E8"/>
<g filter="url(#filter4_d_23_3611)">
<path d="M88.37 954.339V988.889C88.37 989.792 87.6113 990.52 86.6746 990.52H45.0399C44.1032 990.52 43.34 989.792 43.34 988.889V949.406C43.34 948.503 44.1042 947.77 45.0399 947.77H54.3928C54.9743 947.767 55.5179 948.059 55.8367 948.546L57.9934 951.923C58.3102 952.413 58.8548 952.706 59.4372 952.701H86.6762C87.6113 952.705 88.37 953.436 88.37 954.339Z" fill="black"/>
</g>
<path d="M88.37 954.339V988.889C88.37 989.792 87.6113 990.52 86.6746 990.52H45.0399C44.1032 990.52 43.34 989.792 43.34 988.889V949.406C43.34 948.503 44.1042 947.77 45.0399 947.77H54.3928C54.9743 947.767 55.5179 948.059 55.8367 948.546L57.9934 951.923C58.3102 952.413 58.8548 952.706 59.4372 952.701H86.6762C87.6113 952.705 88.37 953.436 88.37 954.339Z" fill="url(#paint2_linear_23_3611)"/>
<path d="M88.37 954.339V988.889C88.37 989.792 87.6113 990.52 86.6746 990.52H45.0399C44.1032 990.52 43.34 989.792 43.34 988.889V949.406C43.34 948.503 44.1042 947.77 45.0399 947.77H54.3928C54.9743 947.767 55.5179 948.059 55.8367 948.546L57.9934 951.923C58.3102 952.413 58.8548 952.706 59.4372 952.701H86.6762C87.6113 952.705 88.37 953.436 88.37 954.339Z" fill="url(#paint3_linear_23_3611)"/>
<path d="M84.6365 953.47H46.5035C45.7007 953.47 45.05 954.121 45.05 954.923V988.496C45.05 989.299 45.7007 989.95 46.5035 989.95H84.6365C85.4392 989.95 86.09 989.299 86.09 988.496V954.923C86.09 954.121 85.4392 953.47 84.6365 953.47Z" fill="#EFEFEF"/>
<path d="M84.6365 954.04H46.5035C45.7007 954.04 45.05 954.691 45.05 955.493V989.066C45.05 989.869 45.7007 990.52 46.5035 990.52H84.6365C85.4392 990.52 86.09 989.869 86.09 989.066V955.493C86.09 954.691 85.4392 954.04 84.6365 954.04Z" fill="white"/>
<path opacity="0.2" d="M88.37 955.18V985.973L88.0589 988.633C87.9551 989.525 87.3317 990.268 86.4759 990.52H45.0399C44.1032 990.52 43.34 989.788 43.34 988.882V960.588H50.628C51.5196 960.588 52.326 960.054 52.6793 959.23L53.8311 956.542C54.1805 955.716 54.9863 955.18 55.8781 955.18H88.37Z" fill="#3D3D3D"/>
<path d="M88.7582 989.11C88.6269 990.239 87.6815 991.09 86.5584 991.09H45.0959C43.9727 991.09 43.0272 990.239 42.8961 989.11L39.9352 963.647C39.8612 963.011 40.0594 962.374 40.4797 961.895C40.9001 961.417 41.5025 961.143 42.135 961.143H51.6147C52.4995 961.143 53.2994 960.61 53.6493 959.788L54.7906 957.105C55.1405 956.283 55.9405 955.75 56.8253 955.75H90.1433C90.7762 955.749 91.379 956.023 91.7997 956.501C92.2204 956.98 92.4188 957.618 92.3448 958.254L88.7582 989.11Z" fill="url(#paint4_linear_23_3611)"/>
</g>
<path d="M36.2617 1028.77H33.5684L29.2207 1021.21H29.1592C29.1774 1021.52 29.1934 1021.84 29.207 1022.16C29.2207 1022.48 29.2344 1022.8 29.248 1023.12C29.2617 1023.43 29.2754 1023.75 29.2891 1024.07V1028.77H27.3955V1018.78H30.0684L34.4092 1026.26H34.457C34.4479 1025.95 34.4365 1025.64 34.4229 1025.34C34.4092 1025.03 34.3955 1024.73 34.3818 1024.42C34.3727 1024.12 34.3636 1023.81 34.3545 1023.51V1018.78H36.2617V1028.77ZM41.7715 1020.98C42.4779 1020.98 43.0863 1021.12 43.5967 1021.39C44.1071 1021.66 44.5013 1022.05 44.7793 1022.57C45.0573 1023.08 45.1963 1023.71 45.1963 1024.46V1025.47H40.2676C40.2904 1026.06 40.4658 1026.52 40.7939 1026.86C41.1266 1027.19 41.5869 1027.35 42.1748 1027.35C42.6624 1027.35 43.109 1027.3 43.5146 1027.2C43.9202 1027.1 44.3372 1026.95 44.7656 1026.75V1028.37C44.3874 1028.55 43.9909 1028.69 43.5762 1028.78C43.166 1028.86 42.667 1028.91 42.0791 1028.91C41.3135 1028.91 40.6344 1028.77 40.042 1028.48C39.4541 1028.2 38.9915 1027.77 38.6543 1027.19C38.3216 1026.61 38.1553 1025.88 38.1553 1025C38.1553 1024.11 38.3057 1023.37 38.6064 1022.77C38.9118 1022.18 39.3356 1021.73 39.8779 1021.43C40.4202 1021.13 41.0514 1020.98 41.7715 1020.98ZM41.7852 1022.47C41.3796 1022.47 41.0423 1022.6 40.7734 1022.86C40.5091 1023.12 40.3564 1023.52 40.3154 1024.08H43.2412C43.2367 1023.77 43.1797 1023.49 43.0703 1023.25C42.9655 1023.01 42.806 1022.82 42.5918 1022.68C42.3822 1022.54 42.1133 1022.47 41.7852 1022.47ZM50.043 1020.98C50.7493 1020.98 51.3577 1021.12 51.8682 1021.39C52.3786 1021.66 52.7728 1022.05 53.0508 1022.57C53.3288 1023.08 53.4678 1023.71 53.4678 1024.46V1025.47H48.5391C48.5618 1026.06 48.7373 1026.52 49.0654 1026.86C49.3981 1027.19 49.8584 1027.35 50.4463 1027.35C50.9339 1027.35 51.3805 1027.3 51.7861 1027.2C52.1917 1027.1 52.6087 1026.95 53.0371 1026.75V1028.37C52.6589 1028.55 52.2624 1028.69 51.8477 1028.78C51.4375 1028.86 50.9385 1028.91 50.3506 1028.91C49.585 1028.91 48.9059 1028.77 48.3135 1028.48C47.7256 1028.2 47.263 1027.77 46.9258 1027.19C46.5931 1026.61 46.4268 1025.88 46.4268 1025C46.4268 1024.11 46.5771 1023.37 46.8779 1022.77C47.1833 1022.18 47.6071 1021.73 48.1494 1021.43C48.6917 1021.13 49.3229 1020.98 50.043 1020.98ZM50.0566 1022.47C49.651 1022.47 49.3138 1022.6 49.0449 1022.86C48.7806 1023.12 48.6279 1023.52 48.5869 1024.08H51.5127C51.5081 1023.77 51.4512 1023.49 51.3418 1023.25C51.237 1023.01 51.0775 1022.82 50.8633 1022.68C50.6536 1022.54 50.3848 1022.47 50.0566 1022.47ZM57.583 1028.91C56.7308 1028.91 56.0358 1028.57 55.498 1027.91C54.9648 1027.24 54.6982 1026.26 54.6982 1024.96C54.6982 1023.65 54.9694 1022.67 55.5117 1022C56.054 1021.32 56.7627 1020.98 57.6377 1020.98C58.0023 1020.98 58.3236 1021.03 58.6016 1021.13C58.8796 1021.23 59.1188 1021.37 59.3193 1021.54C59.5244 1021.71 59.6976 1021.9 59.8389 1022.1H59.9072C59.8799 1021.96 59.8457 1021.74 59.8047 1021.46C59.7682 1021.18 59.75 1020.88 59.75 1020.58V1018.13H61.8418V1028.77H60.2422L59.8389 1027.78H59.75C59.6178 1027.99 59.4515 1028.18 59.251 1028.35C59.055 1028.52 58.8203 1028.66 58.5469 1028.76C58.2734 1028.86 57.9521 1028.91 57.583 1028.91ZM58.3145 1027.25C58.8841 1027.25 59.2852 1027.08 59.5176 1026.74C59.7546 1026.4 59.8799 1025.89 59.8936 1025.2V1024.98C59.8936 1024.23 59.7796 1023.67 59.5518 1023.27C59.3239 1022.88 58.9001 1022.68 58.2803 1022.68C57.82 1022.68 57.46 1022.88 57.2002 1023.27C56.9404 1023.67 56.8105 1024.24 56.8105 1024.99C56.8105 1025.74 56.9404 1026.3 57.2002 1026.68C57.4645 1027.06 57.8359 1027.25 58.3145 1027.25ZM69.7441 1018.13V1020.3C69.7441 1020.68 69.7305 1021.04 69.7031 1021.38C69.6803 1021.72 69.6621 1021.96 69.6484 1022.1H69.7578C69.9219 1021.84 70.1156 1021.63 70.3389 1021.46C70.5667 1021.3 70.8174 1021.18 71.0908 1021.1C71.3643 1021.02 71.6582 1020.98 71.9727 1020.98C72.5241 1020.98 73.0049 1021.08 73.415 1021.28C73.8252 1021.47 74.1442 1021.77 74.3721 1022.19C74.5999 1022.6 74.7139 1023.13 74.7139 1023.79V1028.77H72.6289V1024.31C72.6289 1023.76 72.5286 1023.35 72.3281 1023.07C72.1276 1022.79 71.8177 1022.65 71.3984 1022.65C70.9792 1022.65 70.6488 1022.75 70.4072 1022.95C70.1657 1023.14 69.9948 1023.42 69.8945 1023.8C69.7943 1024.17 69.7441 1024.63 69.7441 1025.17V1028.77H67.6592V1018.13H69.7441ZM80.0117 1020.98C80.7181 1020.98 81.3265 1021.12 81.8369 1021.39C82.3473 1021.66 82.7415 1022.05 83.0195 1022.57C83.2975 1023.08 83.4365 1023.71 83.4365 1024.46V1025.47H78.5078C78.5306 1026.06 78.7061 1026.52 79.0342 1026.86C79.3669 1027.19 79.8271 1027.35 80.415 1027.35C80.9027 1027.35 81.3493 1027.3 81.7549 1027.2C82.1605 1027.1 82.5775 1026.95 83.0059 1026.75V1028.37C82.6276 1028.55 82.2311 1028.69 81.8164 1028.78C81.4062 1028.86 80.9072 1028.91 80.3193 1028.91C79.5537 1028.91 78.8747 1028.77 78.2822 1028.48C77.6943 1028.2 77.2318 1027.77 76.8945 1027.19C76.5618 1026.61 76.3955 1025.88 76.3955 1025C76.3955 1024.11 76.5459 1023.37 76.8467 1022.77C77.152 1022.18 77.5758 1021.73 78.1182 1021.43C78.6605 1021.13 79.2917 1020.98 80.0117 1020.98ZM80.0254 1022.47C79.6198 1022.47 79.2826 1022.6 79.0137 1022.86C78.7493 1023.12 78.5967 1023.52 78.5557 1024.08H81.4814C81.4769 1023.77 81.4199 1023.49 81.3105 1023.25C81.2057 1023.01 81.0462 1022.82 80.832 1022.68C80.6224 1022.54 80.3535 1022.47 80.0254 1022.47ZM87.2168 1028.77H85.1318V1018.13H87.2168V1028.77ZM93.6631 1020.98C94.5244 1020.98 95.2194 1021.32 95.748 1021.99C96.2812 1022.66 96.5479 1023.64 96.5479 1024.93C96.5479 1025.8 96.4225 1026.53 96.1719 1027.12C95.9212 1027.71 95.5749 1028.15 95.1328 1028.46C94.6908 1028.76 94.1826 1028.91 93.6084 1028.91C93.2393 1028.91 92.9225 1028.86 92.6582 1028.77C92.3939 1028.67 92.1683 1028.55 91.9814 1028.41C91.7946 1028.26 91.6328 1028.1 91.4961 1027.93H91.3867C91.4232 1028.11 91.4505 1028.3 91.4688 1028.49C91.487 1028.68 91.4961 1028.87 91.4961 1029.05V1032.13H89.4111V1021.13H91.1064L91.4004 1022.12H91.4961C91.6328 1021.91 91.7992 1021.72 91.9951 1021.55C92.1911 1021.38 92.4258 1021.24 92.6992 1021.14C92.9772 1021.04 93.2985 1020.98 93.6631 1020.98ZM92.9932 1022.65C92.6286 1022.65 92.3392 1022.73 92.125 1022.88C91.9108 1023.03 91.7536 1023.25 91.6533 1023.55C91.5576 1023.85 91.5052 1024.24 91.4961 1024.7V1024.92C91.4961 1025.41 91.5417 1025.83 91.6328 1026.17C91.7285 1026.51 91.8857 1026.77 92.1045 1026.95C92.3278 1027.13 92.6331 1027.22 93.0205 1027.22C93.3395 1027.22 93.6016 1027.13 93.8066 1026.95C94.0117 1026.77 94.1644 1026.51 94.2646 1026.17C94.3695 1025.83 94.4219 1025.4 94.4219 1024.91C94.4219 1024.16 94.3057 1023.6 94.0732 1023.22C93.8408 1022.84 93.4808 1022.65 92.9932 1022.65ZM99.0635 1025.45V1024.95C99.0635 1024.64 99.1068 1024.37 99.1934 1024.13C99.2799 1023.89 99.4189 1023.66 99.6104 1023.44C99.8018 1023.23 100.055 1023 100.369 1022.77C100.652 1022.57 100.877 1022.39 101.046 1022.23C101.219 1022.08 101.344 1021.92 101.422 1021.76C101.504 1021.6 101.545 1021.42 101.545 1021.22C101.545 1020.93 101.436 1020.7 101.217 1020.55C100.998 1020.39 100.693 1020.31 100.301 1020.31C99.9089 1020.31 99.5192 1020.38 99.1318 1020.5C98.749 1020.62 98.3594 1020.78 97.9629 1020.98L97.2178 1019.49C97.6735 1019.23 98.168 1019.03 98.7012 1018.87C99.2344 1018.71 99.8177 1018.63 100.451 1018.63C101.426 1018.63 102.181 1018.87 102.714 1019.34C103.252 1019.8 103.521 1020.39 103.521 1021.11C103.521 1021.5 103.459 1021.83 103.336 1022.11C103.217 1022.39 103.035 1022.65 102.789 1022.89C102.548 1023.13 102.244 1023.38 101.88 1023.64C101.606 1023.84 101.397 1024.01 101.251 1024.15C101.105 1024.29 101.005 1024.42 100.95 1024.56C100.9 1024.69 100.875 1024.85 100.875 1025.04V1025.45H99.0635ZM98.8447 1027.79C98.8447 1027.36 98.9609 1027.06 99.1934 1026.89C99.4303 1026.72 99.7152 1026.63 100.048 1026.63C100.371 1026.63 100.649 1026.72 100.882 1026.89C101.119 1027.06 101.237 1027.36 101.237 1027.79C101.237 1028.2 101.119 1028.5 100.882 1028.68C100.649 1028.86 100.371 1028.95 100.048 1028.95C99.7152 1028.95 99.4303 1028.86 99.1934 1028.68C98.9609 1028.5 98.8447 1028.2 98.8447 1027.79Z" fill="#2D3748"/>
<path d="M13.7402 1039.63C14.6615 1039.63 15.3337 1039.83 15.7568 1040.23C16.18 1040.62 16.3916 1041.16 16.3916 1041.86C16.3916 1042.17 16.3444 1042.47 16.25 1042.76C16.1556 1043.04 16.001 1043.29 15.7861 1043.51C15.5745 1043.73 15.2913 1043.91 14.9365 1044.04C14.5817 1044.17 14.1439 1044.23 13.623 1044.23H12.9736V1046.77H11.46V1039.63H13.7402ZM13.6621 1040.87H12.9736V1042.99H13.4717C13.7549 1042.99 14.0007 1042.95 14.209 1042.88C14.4173 1042.8 14.5785 1042.69 14.6924 1042.53C14.8063 1042.37 14.8633 1042.16 14.8633 1041.91C14.8633 1041.56 14.7656 1041.3 14.5703 1041.13C14.375 1040.96 14.0723 1040.87 13.6621 1040.87ZM19.1113 1046.77H17.6221V1039.17H19.1113V1046.77ZM22.9297 1041.21C23.4342 1041.21 23.8688 1041.31 24.2334 1041.5C24.598 1041.69 24.8796 1041.97 25.0781 1042.34C25.2767 1042.71 25.376 1043.16 25.376 1043.69V1044.41H21.8555C21.8717 1044.83 21.9971 1045.16 22.2314 1045.4C22.4691 1045.64 22.7979 1045.76 23.2178 1045.76C23.5661 1045.76 23.8851 1045.72 24.1748 1045.65C24.4645 1045.58 24.7624 1045.47 25.0684 1045.33V1046.48C24.7982 1046.62 24.515 1046.71 24.2188 1046.77C23.9258 1046.84 23.5693 1046.87 23.1494 1046.87C22.6025 1046.87 22.1175 1046.77 21.6943 1046.56C21.2744 1046.36 20.944 1046.06 20.7031 1045.64C20.4655 1045.23 20.3467 1044.71 20.3467 1044.08C20.3467 1043.44 20.4541 1042.91 20.6689 1042.49C20.887 1042.06 21.1898 1041.74 21.5771 1041.53C21.9645 1041.32 22.4154 1041.21 22.9297 1041.21ZM22.9395 1042.27C22.6497 1042.27 22.4089 1042.36 22.2168 1042.55C22.028 1042.73 21.9189 1043.02 21.8896 1043.42H23.9795C23.9762 1043.2 23.9355 1043 23.8574 1042.83C23.7826 1042.66 23.6686 1042.52 23.5156 1042.42C23.3659 1042.32 23.1738 1042.27 22.9395 1042.27ZM28.8232 1041.2C29.5557 1041.2 30.1172 1041.36 30.5078 1041.68C30.8984 1042 31.0938 1042.48 31.0938 1043.13V1046.77H30.0537L29.7656 1046.03H29.7266C29.5703 1046.22 29.4108 1046.38 29.248 1046.51C29.0853 1046.63 28.8981 1046.72 28.6865 1046.78C28.4749 1046.84 28.2178 1046.87 27.915 1046.87C27.5928 1046.87 27.3031 1046.81 27.0459 1046.68C26.792 1046.56 26.5918 1046.37 26.4453 1046.12C26.2988 1045.86 26.2256 1045.53 26.2256 1045.14C26.2256 1044.56 26.429 1044.13 26.8359 1043.86C27.2428 1043.58 27.8532 1043.43 28.667 1043.4L29.6143 1043.37V1043.13C29.6143 1042.85 29.5394 1042.64 29.3896 1042.5C29.2399 1042.37 29.0316 1042.3 28.7646 1042.3C28.501 1042.3 28.2422 1042.34 27.9883 1042.41C27.7344 1042.49 27.4805 1042.58 27.2266 1042.7L26.7334 1041.69C27.0231 1041.54 27.347 1041.42 27.7051 1041.33C28.0664 1041.24 28.4391 1041.2 28.8232 1041.2ZM29.6143 1044.24L29.0381 1044.26C28.5563 1044.27 28.221 1044.36 28.0322 1044.52C27.8467 1044.68 27.7539 1044.89 27.7539 1045.15C27.7539 1045.38 27.8206 1045.54 27.9541 1045.64C28.0876 1045.73 28.2617 1045.78 28.4766 1045.78C28.7956 1045.78 29.0641 1045.68 29.2822 1045.5C29.5036 1045.31 29.6143 1045.04 29.6143 1044.69V1044.24ZM36.4404 1045.15C36.4404 1045.52 36.3525 1045.83 36.1768 1046.09C36.0042 1046.35 35.7454 1046.54 35.4004 1046.67C35.0553 1046.8 34.6257 1046.87 34.1113 1046.87C33.7305 1046.87 33.4033 1046.84 33.1299 1046.79C32.8597 1046.75 32.5863 1046.66 32.3096 1046.55V1045.32C32.6058 1045.45 32.9232 1045.56 33.2617 1045.65C33.6035 1045.74 33.903 1045.78 34.1602 1045.78C34.4499 1045.78 34.6566 1045.74 34.7803 1045.65C34.9072 1045.56 34.9707 1045.45 34.9707 1045.31C34.9707 1045.22 34.9447 1045.14 34.8926 1045.07C34.8438 1044.99 34.7363 1044.91 34.5703 1044.82C34.4043 1044.72 34.1439 1044.6 33.7891 1044.45C33.4473 1044.31 33.1657 1044.16 32.9443 1044.02C32.7262 1043.87 32.5635 1043.7 32.4561 1043.5C32.3519 1043.3 32.2998 1043.04 32.2998 1042.73C32.2998 1042.23 32.4951 1041.85 32.8857 1041.59C33.2796 1041.34 33.8053 1041.21 34.4629 1041.21C34.8014 1041.21 35.1237 1041.24 35.4297 1041.31C35.7389 1041.38 36.0563 1041.49 36.3818 1041.64L35.9326 1042.71C35.6624 1042.6 35.4069 1042.5 35.166 1042.42C34.9284 1042.35 34.6859 1042.31 34.4385 1042.31C34.2204 1042.31 34.056 1042.34 33.9453 1042.4C33.8346 1042.46 33.7793 1042.55 33.7793 1042.67C33.7793 1042.76 33.807 1042.83 33.8623 1042.9C33.9209 1042.97 34.0316 1043.05 34.1943 1043.13C34.3604 1043.21 34.6029 1043.32 34.9219 1043.45C35.2311 1043.58 35.4997 1043.71 35.7275 1043.85C35.9554 1043.99 36.1312 1044.16 36.2549 1044.36C36.3786 1044.56 36.4404 1044.83 36.4404 1045.15ZM39.8535 1041.21C40.3581 1041.21 40.7926 1041.31 41.1572 1041.5C41.5218 1041.69 41.8034 1041.97 42.002 1042.34C42.2005 1042.71 42.2998 1043.16 42.2998 1043.69V1044.41H38.7793C38.7956 1044.83 38.9209 1045.16 39.1553 1045.4C39.3929 1045.64 39.7217 1045.76 40.1416 1045.76C40.4899 1045.76 40.8089 1045.72 41.0986 1045.65C41.3883 1045.58 41.6862 1045.47 41.9922 1045.33V1046.48C41.722 1046.62 41.4388 1046.71 41.1426 1046.77C40.8496 1046.84 40.4932 1046.87 40.0732 1046.87C39.5264 1046.87 39.0413 1046.77 38.6182 1046.56C38.1982 1046.36 37.8678 1046.06 37.627 1045.64C37.3893 1045.23 37.2705 1044.71 37.2705 1044.08C37.2705 1043.44 37.3779 1042.91 37.5928 1042.49C37.8109 1042.06 38.1136 1041.74 38.501 1041.53C38.8883 1041.32 39.3392 1041.21 39.8535 1041.21ZM39.8633 1042.27C39.5736 1042.27 39.3327 1042.36 39.1406 1042.55C38.9518 1042.73 38.8428 1043.02 38.8135 1043.42H40.9033C40.9001 1043.2 40.8594 1043 40.7812 1042.83C40.7064 1042.66 40.5924 1042.52 40.4395 1042.42C40.2897 1042.32 40.0977 1042.27 39.8633 1042.27ZM48.3252 1046.87C47.7848 1046.87 47.3242 1046.77 46.9434 1046.57C46.5625 1046.38 46.2728 1046.07 46.0742 1045.66C45.8757 1045.24 45.7764 1044.71 45.7764 1044.07C45.7764 1043.4 45.8887 1042.86 46.1133 1042.44C46.3411 1042.02 46.6553 1041.7 47.0557 1041.51C47.4593 1041.31 47.9264 1041.21 48.457 1041.21C48.8346 1041.21 49.1602 1041.25 49.4336 1041.32C49.7103 1041.39 49.9512 1041.48 50.1562 1041.58L49.7168 1042.73C49.4824 1042.64 49.2643 1042.56 49.0625 1042.5C48.8607 1042.44 48.6589 1042.41 48.457 1042.41C48.1966 1042.41 47.9801 1042.47 47.8076 1042.6C47.6351 1042.72 47.5065 1042.9 47.4219 1043.14C47.3372 1043.39 47.2949 1043.69 47.2949 1044.06C47.2949 1044.42 47.3405 1044.72 47.4316 1044.96C47.5228 1045.2 47.6546 1045.37 47.8271 1045.49C47.9997 1045.6 48.2096 1045.66 48.457 1045.66C48.7663 1045.66 49.0413 1045.62 49.2822 1045.54C49.5231 1045.45 49.7575 1045.34 49.9854 1045.19V1046.46C49.7575 1046.61 49.5182 1046.71 49.2676 1046.77C49.0202 1046.84 48.7061 1046.87 48.3252 1046.87ZM52.7441 1039.17V1040.72C52.7441 1040.99 52.7344 1041.25 52.7148 1041.49C52.6986 1041.74 52.6855 1041.91 52.6758 1042.01H52.7539C52.8711 1041.82 53.0094 1041.67 53.1689 1041.55C53.3317 1041.43 53.5107 1041.35 53.7061 1041.29C53.9014 1041.24 54.1113 1041.21 54.3359 1041.21C54.7298 1041.21 55.0732 1041.28 55.3662 1041.42C55.6592 1041.56 55.887 1041.77 56.0498 1042.07C56.2126 1042.36 56.2939 1042.74 56.2939 1043.21V1046.77H54.8047V1043.58C54.8047 1043.19 54.7331 1042.9 54.5898 1042.7C54.4466 1042.5 54.2253 1042.4 53.9258 1042.4C53.6263 1042.4 53.3903 1042.47 53.2178 1042.61C53.0452 1042.75 52.9232 1042.95 52.8516 1043.22C52.7799 1043.49 52.7441 1043.81 52.7441 1044.2V1046.77H51.2549V1039.17H52.7441ZM60.0781 1041.21C60.5827 1041.21 61.0173 1041.31 61.3818 1041.5C61.7464 1041.69 62.028 1041.97 62.2266 1042.34C62.4251 1042.71 62.5244 1043.16 62.5244 1043.69V1044.41H59.0039C59.0202 1044.83 59.1455 1045.16 59.3799 1045.4C59.6175 1045.64 59.9463 1045.76 60.3662 1045.76C60.7145 1045.76 61.0335 1045.72 61.3232 1045.65C61.613 1045.58 61.9108 1045.47 62.2168 1045.33V1046.48C61.9466 1046.62 61.6634 1046.71 61.3672 1046.77C61.0742 1046.84 60.7178 1046.87 60.2979 1046.87C59.751 1046.87 59.266 1046.77 58.8428 1046.56C58.4229 1046.36 58.0924 1046.06 57.8516 1045.64C57.6139 1045.23 57.4951 1044.71 57.4951 1044.08C57.4951 1043.44 57.6025 1042.91 57.8174 1042.49C58.0355 1042.06 58.3382 1041.74 58.7256 1041.53C59.113 1041.32 59.5638 1041.21 60.0781 1041.21ZM60.0879 1042.27C59.7982 1042.27 59.5573 1042.36 59.3652 1042.55C59.1764 1042.73 59.0674 1043.02 59.0381 1043.42H61.1279C61.1247 1043.2 61.084 1043 61.0059 1042.83C60.931 1042.66 60.8171 1042.52 60.6641 1042.42C60.5143 1042.32 60.3223 1042.27 60.0879 1042.27ZM65.9521 1046.87C65.4118 1046.87 64.9512 1046.77 64.5703 1046.57C64.1895 1046.38 63.8997 1046.07 63.7012 1045.66C63.5026 1045.24 63.4033 1044.71 63.4033 1044.07C63.4033 1043.4 63.5156 1042.86 63.7402 1042.44C63.9681 1042.02 64.2822 1041.7 64.6826 1041.51C65.0863 1041.31 65.5534 1041.21 66.084 1041.21C66.4616 1041.21 66.7871 1041.25 67.0605 1041.32C67.3372 1041.39 67.5781 1041.48 67.7832 1041.58L67.3438 1042.73C67.1094 1042.64 66.8913 1042.56 66.6895 1042.5C66.4876 1042.44 66.2858 1042.41 66.084 1042.41C65.8236 1042.41 65.6071 1042.47 65.4346 1042.6C65.262 1042.72 65.1335 1042.9 65.0488 1043.14C64.9642 1043.39 64.9219 1043.69 64.9219 1044.06C64.9219 1044.42 64.9674 1044.72 65.0586 1044.96C65.1497 1045.2 65.2816 1045.37 65.4541 1045.49C65.6266 1045.6 65.8366 1045.66 66.084 1045.66C66.3932 1045.66 66.6683 1045.62 66.9092 1045.54C67.1501 1045.45 67.3844 1045.34 67.6123 1045.19V1046.46C67.3844 1046.61 67.1452 1046.71 66.8945 1046.77C66.6471 1046.84 66.333 1046.87 65.9521 1046.87ZM70.3711 1039.17V1042.57C70.3711 1042.78 70.363 1042.98 70.3467 1043.19C70.3304 1043.39 70.3125 1043.6 70.293 1043.8H70.3125C70.4134 1043.66 70.516 1043.52 70.6201 1043.38C70.7275 1043.24 70.8415 1043.1 70.9619 1042.97L72.4902 1041.31H74.1699L72.002 1043.68L74.3018 1046.77H72.583L71.0107 1044.56L70.3711 1045.07V1046.77H68.8818V1039.17H70.3711ZM82.6416 1044.03C82.6416 1044.49 82.5798 1044.89 82.4561 1045.24C82.3356 1045.59 82.1582 1045.89 81.9238 1046.14C81.6927 1046.38 81.4128 1046.56 81.084 1046.68C80.7585 1046.81 80.3906 1046.87 79.9805 1046.87C79.5964 1046.87 79.2432 1046.81 78.9209 1046.68C78.6019 1046.56 78.3236 1046.38 78.0859 1046.14C77.8516 1045.89 77.6693 1045.59 77.5391 1045.24C77.4121 1044.89 77.3486 1044.49 77.3486 1044.03C77.3486 1043.43 77.4561 1042.91 77.6709 1042.49C77.8857 1042.07 78.1917 1041.75 78.5889 1041.54C78.986 1041.32 79.4596 1041.21 80.0098 1041.21C80.5208 1041.21 80.9733 1041.32 81.3672 1041.54C81.7643 1041.75 82.0752 1042.07 82.2998 1042.49C82.5277 1042.91 82.6416 1043.43 82.6416 1044.03ZM78.8672 1044.03C78.8672 1044.39 78.9062 1044.69 78.9844 1044.93C79.0625 1045.18 79.1846 1045.36 79.3506 1045.49C79.5166 1045.61 79.7331 1045.67 80 1045.67C80.2637 1045.67 80.4769 1045.61 80.6396 1045.49C80.8057 1045.36 80.9261 1045.18 81.001 1044.93C81.0791 1044.69 81.1182 1044.39 81.1182 1044.03C81.1182 1043.67 81.0791 1043.37 81.001 1043.13C80.9261 1042.89 80.8057 1042.71 80.6396 1042.59C80.4736 1042.47 80.2572 1042.41 79.9902 1042.41C79.5964 1042.41 79.3099 1042.54 79.1309 1042.81C78.9551 1043.09 78.8672 1043.49 78.8672 1044.03ZM88.8818 1041.31V1046.77H87.7393L87.5391 1046.07H87.4609C87.3438 1046.26 87.1973 1046.41 87.0215 1046.53C86.8457 1046.64 86.652 1046.73 86.4404 1046.78C86.2288 1046.84 86.0091 1046.87 85.7812 1046.87C85.3906 1046.87 85.0505 1046.8 84.7607 1046.66C84.471 1046.52 84.2448 1046.31 84.082 1046.01C83.9225 1045.72 83.8428 1045.34 83.8428 1044.87V1041.31H85.332V1044.5C85.332 1044.89 85.402 1045.18 85.542 1045.38C85.682 1045.58 85.9049 1045.68 86.2109 1045.68C86.5137 1045.68 86.7513 1045.61 86.9238 1045.48C87.0964 1045.34 87.2168 1045.13 87.2852 1044.87C87.3568 1044.6 87.3926 1044.27 87.3926 1043.88V1041.31H88.8818ZM93.4912 1041.21C93.5661 1041.21 93.6523 1041.21 93.75 1041.22C93.8509 1041.23 93.9323 1041.24 93.9941 1041.25L93.8818 1042.65C93.833 1042.63 93.763 1042.62 93.6719 1042.61C93.584 1042.6 93.5075 1042.6 93.4424 1042.6C93.2503 1042.6 93.0632 1042.62 92.8809 1042.67C92.7018 1042.72 92.5407 1042.8 92.3975 1042.91C92.2542 1043.02 92.1403 1043.16 92.0557 1043.34C91.9743 1043.52 91.9336 1043.73 91.9336 1043.99V1046.77H90.4443V1041.31H91.5723L91.792 1042.23H91.8652C91.9727 1042.04 92.1061 1041.87 92.2656 1041.72C92.4284 1041.56 92.6123 1041.44 92.8174 1041.35C93.0257 1041.26 93.2503 1041.21 93.4912 1041.21ZM99.3115 1046.87C98.7028 1046.87 98.2064 1046.63 97.8223 1046.15C97.4414 1045.68 97.251 1044.97 97.251 1044.05C97.251 1043.12 97.4447 1042.41 97.832 1041.93C98.2194 1041.45 98.7256 1041.21 99.3506 1041.21C99.611 1041.21 99.8405 1041.24 100.039 1041.32C100.238 1041.39 100.409 1041.48 100.552 1041.6C100.698 1041.72 100.822 1041.86 100.923 1042.01H100.972C100.952 1041.9 100.928 1041.75 100.898 1041.55C100.872 1041.35 100.859 1041.14 100.859 1040.92V1039.17H102.354V1046.77H101.211L100.923 1046.06H100.859C100.765 1046.21 100.646 1046.35 100.503 1046.47C100.363 1046.59 100.195 1046.69 100 1046.76C99.8047 1046.83 99.5752 1046.87 99.3115 1046.87ZM99.834 1045.68C100.241 1045.68 100.527 1045.56 100.693 1045.32C100.863 1045.08 100.952 1044.71 100.962 1044.22V1044.06C100.962 1043.53 100.881 1043.12 100.718 1042.84C100.555 1042.56 100.252 1042.42 99.8096 1042.42C99.4808 1042.42 99.2236 1042.56 99.0381 1042.84C98.8525 1043.13 98.7598 1043.54 98.7598 1044.07C98.7598 1044.6 98.8525 1045.01 99.0381 1045.28C99.2269 1045.55 99.4922 1045.68 99.834 1045.68ZM108.872 1044.03C108.872 1044.49 108.81 1044.89 108.687 1045.24C108.566 1045.59 108.389 1045.89 108.154 1046.14C107.923 1046.38 107.643 1046.56 107.314 1046.68C106.989 1046.81 106.621 1046.87 106.211 1046.87C105.827 1046.87 105.474 1046.81 105.151 1046.68C104.832 1046.56 104.554 1046.38 104.316 1046.14C104.082 1045.89 103.9 1045.59 103.77 1045.24C103.643 1044.89 103.579 1044.49 103.579 1044.03C103.579 1043.43 103.687 1042.91 103.901 1042.49C104.116 1042.07 104.422 1041.75 104.819 1041.54C105.216 1041.32 105.69 1041.21 106.24 1041.21C106.751 1041.21 107.204 1041.32 107.598 1041.54C107.995 1041.75 108.306 1042.07 108.53 1042.49C108.758 1042.91 108.872 1043.43 108.872 1044.03ZM105.098 1044.03C105.098 1044.39 105.137 1044.69 105.215 1044.93C105.293 1045.18 105.415 1045.36 105.581 1045.49C105.747 1045.61 105.964 1045.67 106.23 1045.67C106.494 1045.67 106.707 1045.61 106.87 1045.49C107.036 1045.36 107.157 1045.18 107.231 1044.93C107.31 1044.69 107.349 1044.39 107.349 1044.03C107.349 1043.67 107.31 1043.37 107.231 1043.13C107.157 1042.89 107.036 1042.71 106.87 1042.59C106.704 1042.47 106.488 1042.41 106.221 1042.41C105.827 1042.41 105.54 1042.54 105.361 1042.81C105.186 1043.09 105.098 1043.49 105.098 1044.03ZM112.319 1046.87C111.779 1046.87 111.318 1046.77 110.938 1046.57C110.557 1046.38 110.267 1046.07 110.068 1045.66C109.87 1045.24 109.771 1044.71 109.771 1044.07C109.771 1043.4 109.883 1042.86 110.107 1042.44C110.335 1042.02 110.649 1041.7 111.05 1041.51C111.453 1041.31 111.921 1041.21 112.451 1041.21C112.829 1041.21 113.154 1041.25 113.428 1041.32C113.704 1041.39 113.945 1041.48 114.15 1041.58L113.711 1042.73C113.477 1042.64 113.258 1042.56 113.057 1042.5C112.855 1042.44 112.653 1042.41 112.451 1042.41C112.191 1042.41 111.974 1042.47 111.802 1042.6C111.629 1042.72 111.501 1042.9 111.416 1043.14C111.331 1043.39 111.289 1043.69 111.289 1044.06C111.289 1044.42 111.335 1044.72 111.426 1044.96C111.517 1045.2 111.649 1045.37 111.821 1045.49C111.994 1045.6 112.204 1045.66 112.451 1045.66C112.76 1045.66 113.035 1045.62 113.276 1045.54C113.517 1045.45 113.752 1045.34 113.979 1045.19V1046.46C113.752 1046.61 113.512 1046.71 113.262 1046.77C113.014 1046.84 112.7 1046.87 112.319 1046.87ZM119.058 1045.15C119.058 1045.52 118.97 1045.83 118.794 1046.09C118.621 1046.35 118.363 1046.54 118.018 1046.67C117.673 1046.8 117.243 1046.87 116.729 1046.87C116.348 1046.87 116.021 1046.84 115.747 1046.79C115.477 1046.75 115.203 1046.66 114.927 1046.55V1045.32C115.223 1045.45 115.54 1045.56 115.879 1045.65C116.221 1045.74 116.52 1045.78 116.777 1045.78C117.067 1045.78 117.274 1045.74 117.397 1045.65C117.524 1045.56 117.588 1045.45 117.588 1045.31C117.588 1045.22 117.562 1045.14 117.51 1045.07C117.461 1044.99 117.354 1044.91 117.188 1044.82C117.021 1044.72 116.761 1044.6 116.406 1044.45C116.064 1044.31 115.783 1044.16 115.562 1044.02C115.343 1043.87 115.181 1043.7 115.073 1043.5C114.969 1043.3 114.917 1043.04 114.917 1042.73C114.917 1042.23 115.112 1041.85 115.503 1041.59C115.897 1041.34 116.423 1041.21 117.08 1041.21C117.419 1041.21 117.741 1041.24 118.047 1041.31C118.356 1041.38 118.674 1041.49 118.999 1041.64L118.55 1042.71C118.28 1042.6 118.024 1042.5 117.783 1042.42C117.546 1042.35 117.303 1042.31 117.056 1042.31C116.838 1042.31 116.673 1042.34 116.562 1042.4C116.452 1042.46 116.396 1042.55 116.396 1042.67C116.396 1042.76 116.424 1042.83 116.479 1042.9C116.538 1042.97 116.649 1043.05 116.812 1043.13C116.978 1043.21 117.22 1043.32 117.539 1043.45C117.848 1043.58 118.117 1043.71 118.345 1043.85C118.573 1043.99 118.748 1044.16 118.872 1044.36C118.996 1044.56 119.058 1044.83 119.058 1045.15Z" fill="#718096"/>
<g filter="url(#filter5_d_23_3611)">
<rect x="8" y="1058.77" width="114" height="30" rx="8" fill="#172B4D" shape-rendering="crispEdges"/>
<path d="M39.418 1073.86C39.418 1074.5 39.2943 1075.04 39.0469 1075.47C38.8021 1075.9 38.4466 1076.23 37.9805 1076.45C37.5143 1076.66 36.9531 1076.77 36.2969 1076.77H34.6797V1071.06H36.4727C37.0716 1071.06 37.5911 1071.17 38.0312 1071.38C38.4714 1071.59 38.8125 1071.9 39.0547 1072.32C39.2969 1072.73 39.418 1073.25 39.418 1073.86ZM38.1602 1073.89C38.1602 1073.47 38.0977 1073.12 37.9727 1072.85C37.8503 1072.58 37.668 1072.38 37.4258 1072.25C37.1862 1072.12 36.8893 1072.05 36.5352 1072.05H35.8906V1075.77H36.4102C37.0013 1075.77 37.4401 1075.61 37.7266 1075.3C38.0156 1074.98 38.1602 1074.51 38.1602 1073.89ZM44.4766 1074.58C44.4766 1074.94 44.4271 1075.27 44.3281 1075.55C44.2318 1075.83 44.0898 1076.07 43.9023 1076.26C43.7174 1076.45 43.4935 1076.6 43.2305 1076.7C42.9701 1076.8 42.6758 1076.85 42.3477 1076.85C42.0404 1076.85 41.7578 1076.8 41.5 1076.7C41.2448 1076.6 41.0221 1076.45 40.832 1076.26C40.6445 1076.07 40.4987 1075.83 40.3945 1075.55C40.293 1075.27 40.2422 1074.94 40.2422 1074.58C40.2422 1074.09 40.3281 1073.68 40.5 1073.35C40.6719 1073.01 40.9167 1072.76 41.2344 1072.58C41.5521 1072.41 41.931 1072.32 42.3711 1072.32C42.7799 1072.32 43.1419 1072.41 43.457 1072.58C43.7747 1072.76 44.0234 1073.01 44.2031 1073.35C44.3854 1073.68 44.4766 1074.09 44.4766 1074.58ZM41.457 1074.58C41.457 1074.86 41.4883 1075.11 41.5508 1075.3C41.6133 1075.5 41.7109 1075.64 41.8438 1075.74C41.9766 1075.84 42.1497 1075.89 42.3633 1075.89C42.5742 1075.89 42.7448 1075.84 42.875 1075.74C43.0078 1075.64 43.1042 1075.5 43.1641 1075.3C43.2266 1075.11 43.2578 1074.86 43.2578 1074.58C43.2578 1074.29 43.2266 1074.05 43.1641 1073.86C43.1042 1073.67 43.0078 1073.52 42.875 1073.43C42.7422 1073.33 42.569 1073.28 42.3555 1073.28C42.0404 1073.28 41.8112 1073.39 41.668 1073.61C41.5273 1073.82 41.457 1074.15 41.457 1074.58ZM47.2344 1076.85C46.8021 1076.85 46.4336 1076.77 46.1289 1076.61C45.8242 1076.45 45.5924 1076.21 45.4336 1075.88C45.2747 1075.55 45.1953 1075.13 45.1953 1074.61C45.1953 1074.08 45.2852 1073.64 45.4648 1073.31C45.6471 1072.97 45.8984 1072.72 46.2188 1072.56C46.5417 1072.4 46.9154 1072.32 47.3398 1072.32C47.6419 1072.32 47.9023 1072.35 48.1211 1072.41C48.3424 1072.47 48.5352 1072.54 48.6992 1072.62L48.3477 1073.54C48.1602 1073.46 47.9857 1073.4 47.8242 1073.36C47.6628 1073.31 47.5013 1073.28 47.3398 1073.28C47.1315 1073.28 46.9583 1073.33 46.8203 1073.43C46.6823 1073.53 46.5794 1073.67 46.5117 1073.87C46.444 1074.06 46.4102 1074.31 46.4102 1074.6C46.4102 1074.89 46.4466 1075.13 46.5195 1075.32C46.5924 1075.51 46.6979 1075.65 46.8359 1075.75C46.974 1075.84 47.1419 1075.88 47.3398 1075.88C47.5872 1075.88 47.8073 1075.85 48 1075.79C48.1927 1075.72 48.3802 1075.62 48.5625 1075.5V1076.52C48.3802 1076.64 48.1888 1076.72 47.9883 1076.77C47.7904 1076.82 47.5391 1076.85 47.2344 1076.85ZM53.5859 1072.4V1076.77H52.6719L52.5117 1076.21H52.4492C52.3555 1076.36 52.2383 1076.48 52.0977 1076.57C51.957 1076.67 51.8021 1076.74 51.6328 1076.78C51.4635 1076.83 51.2878 1076.85 51.1055 1076.85C50.793 1076.85 50.5208 1076.79 50.2891 1076.68C50.0573 1076.57 49.8763 1076.4 49.7461 1076.16C49.6185 1075.93 49.5547 1075.63 49.5547 1075.25V1072.4H50.7461V1074.95C50.7461 1075.27 50.8021 1075.5 50.9141 1075.66C51.026 1075.82 51.2044 1075.9 51.4492 1075.9C51.6914 1075.9 51.8815 1075.84 52.0195 1075.73C52.1576 1075.62 52.2539 1075.46 52.3086 1075.25C52.3659 1075.03 52.3945 1074.77 52.3945 1074.46V1072.4H53.5859ZM59.9648 1072.32C60.4596 1072.32 60.8333 1072.45 61.0859 1072.7C61.3411 1072.96 61.4688 1073.36 61.4688 1073.92V1076.77H60.2734V1074.22C60.2734 1073.91 60.2201 1073.67 60.1133 1073.51C60.0065 1073.35 59.8411 1073.27 59.6172 1073.27C59.3021 1073.27 59.0781 1073.39 58.9453 1073.61C58.8125 1073.84 58.7461 1074.16 58.7461 1074.58V1076.77H57.5547V1074.22C57.5547 1074.01 57.5312 1073.84 57.4844 1073.7C57.4375 1073.56 57.3659 1073.45 57.2695 1073.38C57.1732 1073.31 57.0495 1073.27 56.8984 1073.27C56.6771 1073.27 56.5026 1073.33 56.375 1073.44C56.25 1073.55 56.1602 1073.71 56.1055 1073.93C56.0534 1074.14 56.0273 1074.41 56.0273 1074.72V1076.77H54.8359V1072.4H55.7461L55.9062 1072.96H55.9727C56.0612 1072.81 56.1719 1072.69 56.3047 1072.59C56.4401 1072.5 56.5885 1072.43 56.75 1072.39C56.9115 1072.34 57.0755 1072.32 57.2422 1072.32C57.5625 1072.32 57.8333 1072.37 58.0547 1072.48C58.2786 1072.58 58.4505 1072.74 58.5703 1072.96H58.6758C58.806 1072.74 58.9896 1072.57 59.2266 1072.47C59.4661 1072.37 59.7122 1072.32 59.9648 1072.32ZM64.4961 1072.32C64.8997 1072.32 65.2474 1072.4 65.5391 1072.56C65.8307 1072.71 66.056 1072.93 66.2148 1073.23C66.3737 1073.52 66.4531 1073.88 66.4531 1074.31V1074.88H63.6367C63.6497 1075.22 63.75 1075.48 63.9375 1075.68C64.1276 1075.87 64.3906 1075.96 64.7266 1075.96C65.0052 1075.96 65.2604 1075.93 65.4922 1075.88C65.724 1075.82 65.9622 1075.73 66.207 1075.62V1076.54C65.9909 1076.65 65.7643 1076.72 65.5273 1076.77C65.293 1076.82 65.0078 1076.85 64.6719 1076.85C64.2344 1076.85 63.8464 1076.77 63.5078 1076.61C63.1719 1076.44 62.9076 1076.2 62.7148 1075.87C62.5247 1075.54 62.4297 1075.12 62.4297 1074.62C62.4297 1074.11 62.5156 1073.68 62.6875 1073.34C62.862 1073 63.1042 1072.75 63.4141 1072.58C63.724 1072.41 64.0846 1072.32 64.4961 1072.32ZM64.5039 1073.17C64.2721 1073.17 64.0794 1073.24 63.9258 1073.39C63.7747 1073.54 63.6875 1073.77 63.6641 1074.09H65.3359C65.3333 1073.91 65.3008 1073.76 65.2383 1073.62C65.1784 1073.48 65.0872 1073.37 64.9648 1073.29C64.8451 1073.21 64.6914 1073.17 64.5039 1073.17ZM69.9023 1072.32C70.3685 1072.32 70.7435 1072.45 71.0273 1072.7C71.3112 1072.96 71.4531 1073.36 71.4531 1073.92V1076.77H70.2617V1074.22C70.2617 1073.91 70.2044 1073.67 70.0898 1073.51C69.9779 1073.35 69.8008 1073.27 69.5586 1073.27C69.194 1073.27 68.9453 1073.4 68.8125 1073.64C68.6797 1073.89 68.6133 1074.25 68.6133 1074.72V1076.77H67.4219V1072.4H68.332L68.4922 1072.96H68.5586C68.6523 1072.81 68.7682 1072.69 68.9062 1072.59C69.0469 1072.5 69.2018 1072.43 69.3711 1072.39C69.543 1072.34 69.7201 1072.32 69.9023 1072.32ZM74.5195 1075.9C74.6497 1075.9 74.776 1075.89 74.8984 1075.86C75.0234 1075.83 75.1471 1075.8 75.2695 1075.76V1076.65C75.1419 1076.71 74.9831 1076.75 74.793 1076.79C74.6055 1076.83 74.3997 1076.85 74.1758 1076.85C73.9154 1076.85 73.681 1076.81 73.4727 1076.72C73.2669 1076.64 73.1042 1076.49 72.9844 1076.28C72.8672 1076.07 72.8086 1075.78 72.8086 1075.4V1073.3H72.2383V1072.79L72.8945 1072.39L73.2383 1071.47H74V1072.4H75.2227V1073.3H74V1075.4C74 1075.57 74.0469 1075.69 74.1406 1075.78C74.237 1075.86 74.3633 1075.9 74.5195 1075.9ZM77.9453 1072.31C78.5312 1072.31 78.9805 1072.44 79.293 1072.7C79.6055 1072.95 79.7617 1073.34 79.7617 1073.86V1076.77H78.9297L78.6992 1076.18H78.668C78.543 1076.33 78.4154 1076.46 78.2852 1076.56C78.1549 1076.66 78.0052 1076.73 77.8359 1076.78C77.6667 1076.82 77.4609 1076.85 77.2188 1076.85C76.9609 1076.85 76.7292 1076.8 76.5234 1076.7C76.3203 1076.6 76.1602 1076.45 76.043 1076.25C75.9258 1076.04 75.8672 1075.78 75.8672 1075.47C75.8672 1075 76.0299 1074.66 76.3555 1074.44C76.681 1074.22 77.1693 1074.1 77.8203 1074.07L78.5781 1074.05V1073.86C78.5781 1073.63 78.5182 1073.46 78.3984 1073.36C78.2786 1073.25 78.112 1073.2 77.8984 1073.2C77.6875 1073.2 77.4805 1073.23 77.2773 1073.29C77.0742 1073.35 76.8711 1073.42 76.668 1073.51L76.2734 1072.71C76.5052 1072.59 76.7643 1072.49 77.0508 1072.42C77.3398 1072.35 77.638 1072.31 77.9453 1072.31ZM78.5781 1074.75L78.1172 1074.76C77.7318 1074.77 77.4635 1074.84 77.3125 1074.97C77.1641 1075.1 77.0898 1075.26 77.0898 1075.47C77.0898 1075.66 77.1432 1075.79 77.25 1075.86C77.3568 1075.94 77.4961 1075.98 77.668 1075.98C77.9232 1075.98 78.138 1075.9 78.3125 1075.75C78.4896 1075.6 78.5781 1075.38 78.5781 1075.11V1074.75ZM82.832 1075.9C82.9622 1075.9 83.0885 1075.89 83.2109 1075.86C83.3359 1075.83 83.4596 1075.8 83.582 1075.76V1076.65C83.4544 1076.71 83.2956 1076.75 83.1055 1076.79C82.918 1076.83 82.7122 1076.85 82.4883 1076.85C82.2279 1076.85 81.9935 1076.81 81.7852 1076.72C81.5794 1076.64 81.4167 1076.49 81.2969 1076.28C81.1797 1076.07 81.1211 1075.78 81.1211 1075.4V1073.3H80.5508V1072.79L81.207 1072.39L81.5508 1071.47H82.3125V1072.4H83.5352V1073.3H82.3125V1075.4C82.3125 1075.57 82.3594 1075.69 82.4531 1075.78C82.5495 1075.86 82.6758 1075.9 82.832 1075.9ZM85.6602 1072.4V1076.77H84.4688V1072.4H85.6602ZM85.0664 1070.69C85.2435 1070.69 85.3958 1070.73 85.5234 1070.82C85.651 1070.9 85.7148 1071.05 85.7148 1071.27C85.7148 1071.5 85.651 1071.65 85.5234 1071.73C85.3958 1071.82 85.2435 1071.86 85.0664 1071.86C84.8867 1071.86 84.7331 1071.82 84.6055 1071.73C84.4805 1071.65 84.418 1071.5 84.418 1071.27C84.418 1071.05 84.4805 1070.9 84.6055 1070.82C84.7331 1070.73 84.8867 1070.69 85.0664 1070.69ZM90.8828 1074.58C90.8828 1074.94 90.8333 1075.27 90.7344 1075.55C90.638 1075.83 90.4961 1076.07 90.3086 1076.26C90.1237 1076.45 89.8997 1076.6 89.6367 1076.7C89.3763 1076.8 89.082 1076.85 88.7539 1076.85C88.4466 1076.85 88.1641 1076.8 87.9062 1076.7C87.651 1076.6 87.4284 1076.45 87.2383 1076.26C87.0508 1076.07 86.9049 1075.83 86.8008 1075.55C86.6992 1075.27 86.6484 1074.94 86.6484 1074.58C86.6484 1074.09 86.7344 1073.68 86.9062 1073.35C87.0781 1073.01 87.3229 1072.76 87.6406 1072.58C87.9583 1072.41 88.3372 1072.32 88.7773 1072.32C89.1862 1072.32 89.5482 1072.41 89.8633 1072.58C90.181 1072.76 90.4297 1073.01 90.6094 1073.35C90.7917 1073.68 90.8828 1074.09 90.8828 1074.58ZM87.8633 1074.58C87.8633 1074.86 87.8945 1075.11 87.957 1075.3C88.0195 1075.5 88.1172 1075.64 88.25 1075.74C88.3828 1075.84 88.556 1075.89 88.7695 1075.89C88.9805 1075.89 89.151 1075.84 89.2812 1075.74C89.4141 1075.64 89.5104 1075.5 89.5703 1075.3C89.6328 1075.11 89.6641 1074.86 89.6641 1074.58C89.6641 1074.29 89.6328 1074.05 89.5703 1073.86C89.5104 1073.67 89.4141 1073.52 89.2812 1073.43C89.1484 1073.33 88.9753 1073.28 88.7617 1073.28C88.4466 1073.28 88.2174 1073.39 88.0742 1073.61C87.9336 1073.82 87.8633 1074.15 87.8633 1074.58ZM94.3477 1072.32C94.8138 1072.32 95.1888 1072.45 95.4727 1072.7C95.7565 1072.96 95.8984 1073.36 95.8984 1073.92V1076.77H94.707V1074.22C94.707 1073.91 94.6497 1073.67 94.5352 1073.51C94.4232 1073.35 94.2461 1073.27 94.0039 1073.27C93.6393 1073.27 93.3906 1073.4 93.2578 1073.64C93.125 1073.89 93.0586 1074.25 93.0586 1074.72V1076.77H91.8672V1072.4H92.7773L92.9375 1072.96H93.0039C93.0977 1072.81 93.2135 1072.69 93.3516 1072.59C93.4922 1072.5 93.6471 1072.43 93.8164 1072.39C93.9883 1072.34 94.1654 1072.32 94.3477 1072.32Z" fill="white"/>
</g>
<defs>
<filter id="filter0_d_23_3611" x="48.99" y="935.22" width="82.18" height="86.74" filterUnits="userSpaceOnUse" color-interpolation-filters="sRGB">
<feFlood flood-opacity="0" result="BackgroundImageFix"/>
<feColorMatrix in="SourceAlpha" type="matrix" values="0 0 0 0 0 0 0 0 0 0 0 0 0 0 0 0 0 0 127 0" result="hardAlpha"/>
<feOffset dy="16"/>
<feGaussianBlur stdDeviation="10"/>
<feColorMatrix type="matrix" values="0 0 0 0 0 0 0 0 0 0 0 0 0 0 0 0 0 0 0.093482 0"/>
<feBlend mode="normal" in2="BackgroundImageFix" result="effect1_dropShadow_23_3611"/>
<feBlend mode="normal" in="SourceGraphic" in2="effect1_dropShadow_23_3611" result="shape"/>
</filter>
<filter id="filter1_d_23_3611" x="-2.31" y="931.8" width="85.6" height="88.45" filterUnits="userSpaceOnUse" color-interpolation-filters="sRGB">
<feFlood flood-opacity="0" result="BackgroundImageFix"/>
<feColorMatrix in="SourceAlpha" type="matrix" values="0 0 0 0 0 0 0 0 0 0 0 0 0 0 0 0 0 0 127 0" result="hardAlpha"/>
<feOffset dy="16"/>
<feGaussianBlur stdDeviation="10"/>
<feColorMatrix type="matrix" values="0 0 0 0 0 0 0 0 0 0 0 0 0 0 0 0 0 0 0.093482 0"/>
<feBlend mode="normal" in2="BackgroundImageFix" result="effect1_dropShadow_23_3611"/>
<feBlend mode="normal" in="SourceGraphic" in2="effect1_dropShadow_23_3611" result="shape"/>
</filter>
<filter id="filter2_d_23_3611" x="16.5" y="920.4" width="77.62" height="83.3199" filterUnits="userSpaceOnUse" color-interpolation-filters="sRGB">
<feFlood flood-opacity="0" result="BackgroundImageFix"/>
<feColorMatrix in="SourceAlpha" type="matrix" values="0 0 0 0 0 0 0 0 0 0 0 0 0 0 0 0 0 0 127 0" result="hardAlpha"/>
<feOffset dy="16"/>
<feGaussianBlur stdDeviation="10"/>
<feColorMatrix type="matrix" values="0 0 0 0 0 0 0 0 0 0 0 0 0 0 0 0 0 0 0.093482 0"/>
<feBlend mode="normal" in2="BackgroundImageFix" result="effect1_dropShadow_23_3611"/>
<feBlend mode="normal" in="SourceGraphic" in2="effect1_dropShadow_23_3611" result="shape"/>
</filter>
<filter id="filter3_d_23_3611" x="38.16" y="922.68" width="81.61" height="85.6" filterUnits="userSpaceOnUse" color-interpolation-filters="sRGB">
<feFlood flood-opacity="0" result="BackgroundImageFix"/>
<feColorMatrix in="SourceAlpha" type="matrix" values="0 0 0 0 0 0 0 0 0 0 0 0 0 0 0 0 0 0 127 0" result="hardAlpha"/>
<feOffset dy="16"/>
<feGaussianBlur stdDeviation="10"/>
<feColorMatrix type="matrix" values="0 0 0 0 0 0 0 0 0 0 0 0 0 0 0 0 0 0 0.093482 0"/>
<feBlend mode="normal" in2="BackgroundImageFix" result="effect1_dropShadow_23_3611"/>
<feBlend mode="normal" in="SourceGraphic" in2="effect1_dropShadow_23_3611" result="shape"/>
</filter>
<filter id="filter4_d_23_3611" x="23.34" y="943.77" width="85.03" height="82.75" filterUnits="userSpaceOnUse" color-interpolation-filters="sRGB">
<feFlood flood-opacity="0" result="BackgroundImageFix"/>
<feColorMatrix in="SourceAlpha" type="matrix" values="0 0 0 0 0 0 0 0 0 0 0 0 0 0 0 0 0 0 127 0" result="hardAlpha"/>
<feOffset dy="16"/>
<feGaussianBlur stdDeviation="10"/>
<feColorMatrix type="matrix" values="0 0 0 0 0.411765 0 0 0 0 0.423529 0 0 0 0 0.894118 0 0 0 0.302194 0"/>
<feBlend mode="normal" in2="BackgroundImageFix" result="effect1_dropShadow_23_3611"/>
<feBlend mode="normal" in="SourceGraphic" in2="effect1_dropShadow_23_3611" result="shape"/>
</filter>
<filter id="filter5_d_23_3611" x="2" y="1054.77" width="126" height="42" filterUnits="userSpaceOnUse" color-interpolation-filters="sRGB">
<feFlood flood-opacity="0" result="BackgroundImageFix"/>
<feColorMatrix in="SourceAlpha" type="matrix" values="0 0 0 0 0 0 0 0 0 0 0 0 0 0 0 0 0 0 127 0" result="hardAlpha"/>
<feOffset dy="2"/>
<feGaussianBlur stdDeviation="3"/>
<feComposite in2="hardAlpha" operator="out"/>
<feColorMatrix type="matrix" values="0 0 0 0 0 0 0 0 0 0 0 0 0 0 0 0 0 0 0.25 0"/>
<feBlend mode="normal" in2="BackgroundImageFix" result="effect1_dropShadow_23_3611"/>
<feBlend mode="normal" in="SourceGraphic" in2="effect1_dropShadow_23_3611" result="shape"/>
</filter>
<linearGradient id="paint0_linear_23_3611" x1="0" y1="80" x2="128.746" y2="80" gradientUnits="userSpaceOnUse">
<stop stop-color="#E0E1E2" stop-opacity="0"/>
<stop offset="0.5" stop-color="#E0E1E2"/>
<stop offset="1" stop-color="#E0E1E2" stop-opacity="0.15625"/>
</linearGradient>
<linearGradient id="paint1_linear_23_3611" x1="0" y1="698.6" x2="128.746" y2="698.6" gradientUnits="userSpaceOnUse">
<stop stop-color="#E0E1E2" stop-opacity="0"/>
<stop offset="0.5" stop-color="#E0E1E2"/>
<stop offset="1" stop-color="#E0E1E2" stop-opacity="0.15625"/>
</linearGradient>
<linearGradient id="paint2_linear_23_3611" x1="65.855" y1="947.77" x2="65.855" y2="990.52" gradientUnits="userSpaceOnUse">
<stop stop-color="#7A62E4"/>
<stop offset="1" stop-color="#656EE4"/>
</linearGradient>
<linearGradient id="paint3_linear_23_3611" x1="46.114" y1="949.88" x2="82.3008" y2="990.288" gradientUnits="userSpaceOnUse">
<stop stop-color="#798CFB"/>
<stop offset="1" stop-color="#5760D5"/>
</linearGradient>
<linearGradient id="paint4_linear_23_3611" x1="43.1504" y1="965.395" x2="78.3437" y2="993.291" gradientUnits="userSpaceOnUse">
<stop stop-color="#798CFB"/>
<stop offset="1" stop-color="#5760D5"/>
</linearGradient>
<clipPath id="clip0_23_3611">
<rect width="16" height="16" fill="white" transform="translate(57 114.8)"/>
</clipPath>
<clipPath id="clip1_23_3611">
<rect width="16" height="16" fill="white" transform="translate(57 475)"/>
</clipPath>
<clipPath id="clip2_23_3611">
<rect width="16" height="16" fill="white" transform="translate(57 532.6)"/>
</clipPath>
<clipPath id="clip3_23_3611">
<rect width="16" height="16" fill="white" transform="translate(57 590.2)"/>
</clipPath>
<clipPath id="clip4_23_3611">
<rect width="16" height="16" fill="white" transform="translate(57 647.8)"/>
</clipPath>
<clipPath id="clip5_23_3611">
<rect width="16" height="16" fill="white" transform="translate(46 758.4)"/>
</clipPath>
<clipPath id="clip6_23_3611">
<rect width="114" height="80.37" fill="white" transform="translate(8 924.4)"/>
</clipPath>
</defs>
</svg>
