<svg width="48" height="48" viewBox="0 0 48 48" fill="none" xmlns="http://www.w3.org/2000/svg">
<path d="M24 48C37.2548 48 48 37.2548 48 24C48 10.7452 37.2548 0 24 0C10.7452 0 0 10.7452 0 24C0 37.2548 10.7452 48 24 48Z" fill="#FB6340"/>
<path fill-rule="evenodd" clip-rule="evenodd" d="M34.8189 12.13C35.1029 12.1154 35.3796 12.2223 35.5799 12.424C35.7801 12.6254 35.8852 12.9025 35.8689 13.186C35.0749 27.148 22.6459 32.388 22.5209 32.439C22.1484 32.5913 21.7208 32.5054 21.4359 32.221L15.7789 26.564C15.4959 26.2805 15.4094 25.8556 15.5589 25.484C15.6089 25.358 20.7909 12.862 34.8189 12.13ZM25.2343 23.8478C25.9817 24.1573 26.842 23.9861 27.4139 23.414C28.1947 22.633 28.1947 21.367 27.4139 20.586C26.842 20.0139 25.9817 19.8426 25.2343 20.1522C24.4869 20.4617 23.9995 21.191 23.9995 22C23.9995 22.809 24.4869 23.5383 25.2343 23.8478Z" fill="white"/>
<path d="M13.113 30.844C13.8306 30.1214 14.8798 29.8377 15.8638 30.1002C16.8478 30.3627 17.6163 31.1312 17.8788 32.1152C18.1412 33.0991 17.8575 34.1483 17.135 34.866C16.024 35.977 12 36 12 36C12 36 12 31.954 13.113 30.844Z" fill="white"/>
<path d="M22.3571 14.341C19.4967 13.8431 16.5731 14.77 14.5221 16.825C13.9873 17.3647 13.5223 17.9695 13.1381 18.625C12.9067 19.018 12.9704 19.5177 13.2931 19.84L15.2821 21.83C17.1303 18.8968 19.5336 16.3529 22.3571 14.341V14.341Z" fill="white"/>
<path d="M33.6589 25.643C34.1568 28.5034 33.2299 31.4269 31.1749 33.478C30.6352 34.0128 30.0304 34.4778 29.3749 34.862C28.982 35.0934 28.4822 35.0297 28.1599 34.707L26.1699 32.718C29.1031 30.8698 31.6471 28.4664 33.6589 25.643V25.643Z" fill="white"/>
</svg>
