<svg width="32" height="32" viewBox="0 0 32 32" fill="none" xmlns="http://www.w3.org/2000/svg">
<path d="M10 24.5C10 25.693 8.806 25.947 8.46 25.996C7.651 25.974 7 25.313 7 24.5V6H16V4H6C5.448 4 5 4.448 5 5V24.5C5 26.43 6.57 28 8.5 28H23.5C25.43 28 27 26.43 27 24.5V23H10V24.5Z" fill="#8898aa"/>
<path d="M22 16C20.513 16 19.135 15.53 18 14.736V21L22 18L26 21V14.736C24.865 15.53 23.487 16 22 16Z" fill="#8898aa"/>
<path d="M22 14C24.7614 14 27 11.7614 27 9C27 6.23858 24.7614 4 22 4C19.2386 4 17 6.23858 17 9C17 11.7614 19.2386 14 22 14Z" fill="#8898aa"/>
</svg>
