<svg width="32" height="32" viewBox="0 0 32 32" fill="none" xmlns="http://www.w3.org/2000/svg">
<path fill-rule="evenodd" clip-rule="evenodd" d="M24.769 14H26C27.1046 14 28 14.8954 28 16C28 17.1046 27.1046 18 26 18H24.769C24.5441 18.9871 24.1532 19.9288 23.613 20.785L24.485 21.657C25.2429 22.4418 25.2321 23.6892 24.4606 24.4606C23.6892 25.2321 22.4418 25.2429 21.657 24.485L20.785 23.613C19.9288 24.1532 18.9871 24.5441 18 24.769V26C18 27.1046 17.1046 28 16 28C14.8954 28 14 27.1046 14 26V24.769C13.0129 24.5441 12.0712 24.1532 11.215 23.613L10.343 24.485C9.55824 25.2429 8.31083 25.2321 7.53936 24.4606C6.7679 23.6892 6.75706 22.4418 7.515 21.657L8.387 20.785C7.84681 19.9288 7.45592 18.9871 7.231 18H6C4.89543 18 4 17.1046 4 16C4 14.8954 4.89543 14 6 14H7.231C7.45592 13.0129 7.84681 12.0712 8.387 11.215L7.515 10.343C6.75706 9.55824 6.7679 8.31083 7.53936 7.53936C8.31083 6.7679 9.55824 6.75706 10.343 7.515L11.215 8.387C12.0712 7.84681 13.0129 7.45592 14 7.231V6C14 4.89543 14.8954 4 16 4C17.1046 4 18 4.89543 18 6V7.231C18.9871 7.45592 19.9288 7.84681 20.785 8.387L21.657 7.515C22.4418 6.75706 23.6892 6.7679 24.4606 7.53936C25.2321 8.31083 25.2429 9.55824 24.485 10.343L23.613 11.215C24.1532 12.0712 24.5441 13.0129 24.769 14ZM12 16C12 18.2091 13.7909 20 16 20C17.0609 20 18.0783 19.5786 18.8284 18.8284C19.5786 18.0783 20 17.0609 20 16C20 13.7909 18.2091 12 16 12C13.7909 12 12 13.7909 12 16Z" fill="#8898aa"/>
</svg>
