<svg width="32" height="32" viewBox="0 0 32 32" fill="none" xmlns="http://www.w3.org/2000/svg">
<path fill-rule="evenodd" clip-rule="evenodd" d="M26.8 25.85C27.128 25.521 27.103 24.482 26.432 22.879C26.862 22.121 27.204 21.311 27.462 20.462C29.182 23.566 29.485 25.993 28.215 27.263C26.744 28.734 23.821 27.872 20.589 25.875C19.213 26.59 17.655 27 16 27C10.486 27 5.99999 22.514 5.99999 17C5.99999 15.345 6.40999 13.787 7.12499 12.411C5.12799 9.18 4.26599 6.256 5.73499 4.784C7.00499 3.514 9.43299 3.817 12.536 5.537C11.688 5.796 10.879 6.137 10.121 6.567C8.51799 5.896 7.47899 5.871 7.14999 6.199C6.73599 6.614 7.03499 8.204 8.35899 10.563C10.195 8.387 12.937 7 16 7C21.514 7 26 11.486 26 17C26 20.063 24.613 22.805 22.436 24.642C24.795 25.965 26.385 26.265 26.8 25.85ZM9.99999 17.5C9.99999 18.328 10.672 19 11.5 19C12.328 19 13 18.328 13 17.5C13 16.672 12.328 16 11.5 16C10.672 16 9.99999 16.672 9.99999 17.5ZM18 21C17.448 21 17 20.552 17 20C17 19.448 17.448 19 18 19C18.552 19 19 19.448 19 20C19 20.552 18.552 21 18 21ZM16 13.5C16 14.328 16.672 15 17.5 15C18.328 15 19 14.328 19 13.5C19 12.672 18.328 12 17.5 12C16.672 12 16 12.672 16 13.5Z" fill="#172B4D"/>
</svg>
