<svg width="32" height="32" viewBox="0 0 32 32" fill="none" xmlns="http://www.w3.org/2000/svg">
<path d="M19.461 18.023C18.424 18.632 17.258 19 16 19C14.742 19 13.576 18.632 12.539 18.023C8.894 18.262 6 21.296 6 25V26.73L6.695 26.953C6.829 26.995 10.038 28 16 28C21.962 28 25.171 26.995 25.305 26.953L26 26.73V25C26 21.296 23.106 18.262 19.461 18.023Z" fill="#FFD65D"/>
<path d="M16 17C19.379 17 22 13.237 22 10C22 6.691 19.309 4 16 4C12.691 4 10 6.691 10 10C10 13.237 12.621 17 16 17Z" fill="#FFD65D"/>
</svg>
